<svg xmlns="http://www.w3.org/2000/svg" width="30" height="30" viewBox="0 0 30 30" fill="none">
  <path d="M21.5009 19.6259C20.1384 20.9884 18.4093 22.6142 16.3113 24.5046C16.311 24.5048 16.3107 24.5051 16.3105 24.5053L15 25.6802L13.6895 24.5053C13.6893 24.5051 13.689 24.5048 13.6887 24.5046C11.5907 22.6142 9.86161 20.9884 8.49908 19.6259C7.14003 18.2669 6.07317 17.0607 5.28956 16.0059C4.50536 14.9502 3.98191 14.0119 3.69177 13.1883C3.39664 12.3505 3.25 11.4972 3.25 10.625C3.25 8.85341 3.83561 7.41255 4.99908 6.24908C6.16255 5.08561 7.60341 4.5 9.375 4.5C10.3487 4.5 11.2714 4.70512 12.1508 5.11677C13.0314 5.52897 13.789 6.10836 14.4285 6.86074L15 7.53304L15.5715 6.86074C16.211 6.10836 16.9686 5.52897 17.8492 5.11677C18.7286 4.70512 19.6513 4.5 20.625 4.5C22.3966 4.5 23.8375 5.08561 25.0009 6.24908C26.1644 7.41255 26.75 8.85341 26.75 10.625C26.75 11.4972 26.6034 12.3505 26.3082 13.1883C26.0181 14.0119 25.4946 14.9502 24.7104 16.0059C23.9268 17.0607 22.86 18.2669 21.5009 19.6259Z" stroke="#101010" stroke-width="1.5"/>
</svg>