<svg xmlns="http://www.w3.org/2000/svg" width="36" height="28" viewBox="0 0 36 28" fill="none">
<path fill-rule="evenodd" clip-rule="evenodd" d="M10.1688 24.9632V26.4443V27.9255H9.52655V27.5659C9.32284 27.8326 9.01373 28 8.59357 28C7.76528 28 7.11594 27.3495 7.11594 26.4443C7.11594 25.5399 7.76528 24.8887 8.59357 24.8887C9.01373 24.8887 9.32284 25.0561 9.52655 25.3228V24.9632H10.1688ZM8.67314 25.4961C8.11717 25.4961 7.77694 25.9238 7.77694 26.4445C7.77694 26.9652 8.11717 27.3929 8.67314 27.3929C9.20435 27.3929 9.56297 26.9836 9.56297 26.4445C9.56297 25.9054 9.20435 25.4961 8.67314 25.4961ZM31.8732 26.4445C31.8732 25.9238 32.2134 25.4961 32.7694 25.4961C33.3013 25.4961 33.6592 25.9054 33.6592 26.4445C33.6592 26.9836 33.3013 27.3929 32.7694 27.3929C32.2134 27.3929 31.8732 26.9652 31.8732 26.4445ZM34.2648 23.7735V26.4443V27.9255H33.6219V27.5659C33.4181 27.8326 33.109 28 32.6889 28C31.8606 28 31.2113 27.3495 31.2113 26.4443C31.2113 25.5399 31.8606 24.8887 32.6889 24.8887C33.109 24.8887 33.4181 25.0561 33.6219 25.3228V23.7735H34.2648ZM18.1415 25.4657C18.5552 25.4657 18.8212 25.7261 18.8891 26.1843H17.3563C17.4249 25.7566 17.6838 25.4657 18.1415 25.4657ZM16.6832 26.4443C16.6832 25.5207 17.2887 24.8887 18.1545 24.8887C18.9821 24.8887 19.5508 25.5207 19.5571 26.4443C19.5571 26.5309 19.5508 26.6118 19.5444 26.6919H17.351C17.4436 27.2254 17.8206 27.4176 18.2344 27.4176C18.5308 27.4176 18.8463 27.3055 19.0938 27.1076L19.4086 27.585C19.05 27.8886 18.6426 28 18.1976 28C17.3135 28 16.6832 27.3864 16.6832 26.4443ZM25.9093 26.4445C25.9093 25.9238 26.2495 25.4961 26.8055 25.4961C27.3367 25.4961 27.6953 25.9054 27.6953 26.4445C27.6953 26.9836 27.3367 27.3929 26.8055 27.3929C26.2495 27.3929 25.9093 26.9652 25.9093 26.4445ZM28.3012 24.9632V26.4443V27.9255H27.6589V27.5659C27.4545 27.8326 27.1461 28 26.726 28C25.8977 28 25.2483 27.3495 25.2483 26.4443C25.2483 25.5399 25.8977 24.8887 26.726 24.8887C27.1461 24.8887 27.4545 25.0561 27.6589 25.3228V24.9632H28.3012ZM22.2817 26.4443C22.2817 27.3431 22.9056 28 23.8577 28C24.3026 28 24.599 27.9007 24.9201 27.6467L24.6117 27.1261C24.3705 27.2998 24.1173 27.3928 23.8386 27.3928C23.3258 27.3864 22.9487 27.0147 22.9487 26.4443C22.9487 25.874 23.3258 25.5023 23.8386 25.4959C24.1173 25.4959 24.3705 25.5888 24.6117 25.7626L24.9201 25.242C24.599 24.988 24.3026 24.8887 23.8577 24.8887C22.9056 24.8887 22.2817 25.5456 22.2817 26.4443ZM29.784 25.3229C29.9509 25.0626 30.1921 24.8888 30.5628 24.8888C30.6929 24.8888 30.8782 24.9136 31.0204 24.9697L30.8224 25.5769C30.6865 25.5208 30.5507 25.5024 30.4206 25.5024C30.0004 25.5024 29.7903 25.7748 29.7903 26.265V27.9256H29.1474V24.9633H29.784V25.3229ZM13.3458 25.1987C13.0367 24.9944 12.6109 24.8887 12.1412 24.8887C11.3929 24.8887 10.9112 25.2483 10.9112 25.8371C10.9112 26.3202 11.2698 26.6181 11.9304 26.7111L12.2339 26.7543C12.5861 26.804 12.7524 26.8969 12.7524 27.0643C12.7524 27.2935 12.5175 27.424 12.079 27.424C11.6341 27.424 11.3129 27.2814 11.0965 27.114L10.7937 27.6155C11.146 27.8759 11.5909 28 12.0726 28C12.9257 28 13.4201 27.5971 13.4201 27.0331C13.4201 26.5124 13.031 26.24 12.3881 26.1471L12.0853 26.1031C11.8074 26.0662 11.5845 26.0109 11.5845 25.8123C11.5845 25.5952 11.7946 25.4654 12.1469 25.4654C12.5239 25.4654 12.8889 25.608 13.0678 25.7194L13.3458 25.1987ZM20.8545 25.3229C21.0207 25.0626 21.2619 24.8888 21.6325 24.8888C21.7627 24.8888 21.948 24.9136 22.0902 24.9697L21.8921 25.5769C21.7563 25.5208 21.6205 25.5024 21.4904 25.5024C21.0702 25.5024 20.8601 25.7748 20.8601 26.265V27.9256H20.2178V24.9633H20.8545V25.3229ZM16.1512 24.9632H15.1008V24.0644H14.4515V24.9632H13.8524V25.5519H14.4515V26.9033C14.4515 27.5907 14.7174 28 15.4771 28C15.7558 28 16.0769 27.9135 16.2807 27.7709L16.0953 27.219C15.9036 27.3304 15.6936 27.3864 15.5266 27.3864C15.2055 27.3864 15.1008 27.1878 15.1008 26.8905V25.5519H16.1512V24.9632ZM6.54798 26.0664V27.9256H5.89865V26.277C5.89865 25.7748 5.68857 25.496 5.25002 25.496C4.82349 25.496 4.52712 25.7691 4.52712 26.2834V27.9256H3.87778V26.277C3.87778 25.7748 3.66204 25.496 3.23552 25.496C2.79626 25.496 2.51191 25.7691 2.51191 26.2834V27.9256H1.86328L1.86328 24.9633H2.50625V25.3286C2.74745 24.9817 3.05585 24.8888 3.37133 24.8888C3.82261 24.8888 4.14374 25.0874 4.34745 25.4159C4.61978 25.0002 5.00881 24.8824 5.38583 24.8888C6.10307 24.8952 6.54798 25.3662 6.54798 26.0664Z" fill="#231F20"/>
<path d="M22.8672 19.931H13.1328V2.38672H22.8672V19.931Z" fill="#FF5F00"/>
<path d="M13.7507 11.1587C13.7507 7.59973 15.4122 4.42953 17.9996 2.38653C16.1075 0.892591 13.7195 0.000907898 11.1243 0.000907898C4.98037 0.000907898 0 4.99632 0 11.1587C0 17.321 4.98037 22.3164 11.1243 22.3164C13.7195 22.3164 16.1075 21.4247 17.9996 19.9308C15.4122 17.8878 13.7507 14.7176 13.7507 11.1587Z" fill="#EB001B"/>
<path d="M36.0003 11.1587C36.0003 17.321 31.02 22.3164 24.876 22.3164C22.2808 22.3164 19.8928 21.4247 18 19.9308C20.5882 17.8878 22.2497 14.7176 22.2497 11.1587C22.2497 7.59973 20.5882 4.42953 18 2.38653C19.8928 0.892591 22.2808 0.000907898 24.876 0.000907898C31.02 0.000907898 36.0003 4.99632 36.0003 11.1587Z" fill="#F79E1B"/>
</svg>