<svg xmlns="http://www.w3.org/2000/svg" width="12" height="10" viewBox="0 0 12 10" fill="none">
<path d="M11.6025 4.66276C10.3682 2.0625 8.50227 0.753906 6.00097 0.753906C3.49837 0.753906 1.63378 2.0625 0.399408 4.66406C0.349897 4.7689 0.324219 4.88341 0.324219 4.99935C0.324219 5.11529 0.349897 5.2298 0.399408 5.33464C1.63378 7.9349 3.49967 9.24349 6.00097 9.24349C8.50358 9.24349 10.3682 7.9349 11.6025 5.33333C11.7028 5.1224 11.7028 4.8776 11.6025 4.66276ZM6.00097 8.30599C3.90071 8.30599 2.36295 7.24089 1.27831 4.9987C2.36295 2.75651 3.90071 1.69141 6.00097 1.69141C8.10123 1.69141 9.63899 2.75651 10.7236 4.9987C9.6403 7.24089 8.10253 8.30599 6.00097 8.30599ZM5.94889 2.70703C4.68326 2.70703 3.65722 3.73307 3.65722 4.9987C3.65722 6.26432 4.68326 7.29036 5.94889 7.29036C7.21451 7.29036 8.24055 6.26432 8.24055 4.9987C8.24055 3.73307 7.21451 2.70703 5.94889 2.70703ZM5.94889 6.45703C5.1429 6.45703 4.49055 5.80469 4.49055 4.9987C4.49055 4.19271 5.1429 3.54036 5.94889 3.54036C6.75488 3.54036 7.40722 4.19271 7.40722 4.9987C7.40722 5.80469 6.75488 6.45703 5.94889 6.45703Z" fill="white"/>
</svg>