<svg xmlns="http://www.w3.org/2000/svg" width="55" height="16" viewBox="0 0 55 16" fill="none">
<g clip-path="url(#clip0_6003_60371)">
<path fill-rule="evenodd" clip-rule="evenodd" d="M14.8247 -0.0078122V-0.000825296C14.8179 -0.000825296 12.6763 -0.00781223 12.1053 2.09524C11.5818 4.02363 10.1065 9.34765 10.0657 9.49437H9.6578C9.6578 9.49437 8.14853 4.05158 7.61825 2.08826C7.04717 -0.0147992 4.89884 -0.0078122 4.89884 -0.0078122H0.00390625V15.9922H4.89884V6.49H5.10279H5.30675L8.16213 15.9922H11.5614L14.4168 6.49699H14.8247V15.9922H19.7196V-0.0078122H14.8247Z" fill="#4DB45E"/>
<path fill-rule="evenodd" clip-rule="evenodd" d="M32.7058 -0.0078125C32.7058 -0.0078125 31.2713 0.124939 30.5982 1.66904L27.131 9.49437H26.7231V-0.0078125H21.8281V15.9922H26.4511C26.4511 15.9922 27.9536 15.8524 28.6266 14.3153L32.0259 6.49H32.4338V15.9922H37.3287V-0.0078125H32.7058Z" fill="#4DB45E"/>
<path fill-rule="evenodd" clip-rule="evenodd" d="M39.4961 7.26172V15.9953H44.391V10.8949H49.6939C52.0054 10.8949 53.9633 9.37875 54.6908 7.26172H39.4961Z" fill="#4DB45E"/>
<path fill-rule="evenodd" clip-rule="evenodd" d="M49.6969 -0.0078125H38.8125C39.3564 3.03848 41.5795 5.48389 44.4553 6.2804C45.1079 6.46206 45.7946 6.55987 46.5016 6.55987H54.891C54.9658 6.19655 54.9998 5.82625 54.9998 5.44197C54.9998 2.43062 52.6271 -0.0078125 49.6969 -0.0078125Z" fill="url(#paint0_linear_6003_60371)"/>
</g>
<defs>
<linearGradient id="paint0_linear_6003_60371" x1="38.8138" y1="3.27603" x2="54.9998" y2="3.27603" gradientUnits="userSpaceOnUse">
<stop offset="0.3" stop-color="#00B4E6"/>
<stop offset="1" stop-color="#088CCB"/>
</linearGradient>
<clipPath id="clip0_6003_60371">
<rect width="55" height="16" fill="white"/>
</clipPath>
</defs>
</svg>