<svg xmlns="http://www.w3.org/2000/svg" width="56" height="28" viewBox="0 0 56 28" fill="none">
<g clip-path="url(#clip0_6450_40392)">
<path d="M48.2189 7.98484V14.8303H45.7745V10.0284H43.4209V14.8303H40.9766V7.98438H48.2189V7.98484Z" fill="black"/>
<path fill-rule="evenodd" clip-rule="evenodd" d="M35.9589 15.0843C38.1471 15.0843 39.772 13.7426 39.772 11.7087C39.772 9.74007 38.5731 8.46188 36.5695 8.46188C35.6448 8.46188 34.8818 8.78738 34.3071 9.34901C34.4443 8.18819 35.426 7.34073 36.5068 7.34073C36.7562 7.34073 38.634 7.33676 38.634 7.33676L39.6959 5.30469C39.6959 5.30469 37.3383 5.35835 36.2424 5.35835C33.7383 5.40199 32.0469 7.67813 32.0469 10.4426C32.0469 13.6633 33.6965 15.0843 35.9589 15.0843ZM35.9722 10.2618C36.7847 10.2618 37.3479 10.7957 37.3479 11.7084C37.3479 12.53 36.8474 13.2069 35.9722 13.2088C35.135 13.2088 34.5717 12.5816 34.5717 11.7224C34.5717 10.8094 35.135 10.2618 35.9722 10.2618Z" fill="black"/>
<path d="M30.0528 12.5518C30.0528 12.5518 29.4756 12.8846 28.6134 12.9476C27.6222 12.977 26.7391 12.3509 26.7391 11.2386C26.7391 10.1537 27.5184 9.53183 28.5884 9.53183C29.2446 9.53183 30.1126 9.98659 30.1126 9.98659C30.1126 9.98659 30.7477 8.8211 31.0767 8.23824C30.4742 7.78161 29.6718 7.53125 28.7385 7.53125C26.383 7.53125 24.5586 9.06703 24.5586 11.2249C24.5586 13.4102 26.2733 14.9103 28.7385 14.8651C29.4275 14.8394 30.3781 14.5974 30.9575 14.2253L30.0528 12.5518Z" fill="black"/>
<path d="M0 6.09375L3.39076 12.1545V15.8514L0.00396662 21.9003L0 6.09375Z" fill="#5B57A2"/>
<path d="M13.0195 9.95344L16.1968 8.00607L22.6993 8L13.0195 13.9299V9.95344Z" fill="#D90751"/>
<path d="M13.0018 6.0589L13.0198 14.0831L9.62109 11.9948V0L13.0018 6.0589Z" fill="#FAB718"/>
<path d="M22.6995 7.99647L16.1968 8.00254L13.0018 6.0589L9.62109 0L22.6995 7.99647Z" fill="#ED6F26"/>
<path d="M13.0198 21.9418V18.0486L9.62109 16L9.62296 28.0067L13.0198 21.9418Z" fill="#63B22F"/>
<path d="M16.1885 20.0042L3.39053 12.1545L0 6.09375L22.6851 19.9963L16.1885 20.0042Z" fill="#1487C9"/>
<path d="M9.625 27.9947L13.0214 21.9298L16.1907 20.0001L22.6873 19.9922L9.625 27.9947Z" fill="#017F36"/>
<path d="M0.00390625 21.9051L9.64816 15.9972L6.4058 14.0078L3.3907 15.8563L0.00390625 21.9051Z" fill="#984995"/>
<path d="M26.7449 19.4538C26.6702 19.549 26.572 19.6209 26.4542 19.6694C26.3333 19.7186 26.2039 19.7437 26.0734 19.7431C25.9436 19.7449 25.8145 19.7232 25.6923 19.6792C25.5826 19.6393 25.4824 19.5772 25.3979 19.4967C25.3144 19.4161 25.2489 19.3188 25.2056 19.2111C25.1587 19.0932 25.1353 18.9673 25.1368 18.8404C25.1368 18.7144 25.1585 18.5977 25.2035 18.4871C25.2467 18.3763 25.3094 18.2813 25.3881 18.2015C25.4667 18.1201 25.561 18.058 25.6669 18.0095C25.7749 17.9628 25.8928 17.9376 26.0223 17.9376C26.1618 17.9376 26.2913 17.9551 26.4091 17.9899C26.527 18.0249 26.6271 18.0832 26.7094 18.1649L26.5662 18.4075C26.4969 18.3447 26.4153 18.2971 26.3265 18.2675C26.2422 18.2404 26.1541 18.2267 26.0654 18.2269C25.987 18.2269 25.9124 18.2423 25.8398 18.2715C25.7683 18.3003 25.703 18.3425 25.6473 18.3959C25.5904 18.4507 25.5456 18.5168 25.5157 18.59C25.4823 18.6656 25.4667 18.7491 25.4667 18.8422C25.4667 18.9374 25.4842 19.0228 25.5176 19.0966C25.5512 19.1724 25.5962 19.2366 25.6531 19.2907C25.7101 19.3453 25.7768 19.3859 25.8533 19.4132C25.9301 19.4424 26.0106 19.4559 26.0969 19.4559C26.2029 19.4559 26.2992 19.4344 26.3816 19.3936C26.4632 19.3542 26.5366 19.2995 26.5977 19.2326L26.7449 19.4538ZM27.1493 19.7023V17.9745H27.4596V19.2618L28.4687 17.9745H28.7791V19.7025H28.4687V18.4152L27.4596 19.7025L27.1493 19.7023ZM30.8347 19.4538C30.7584 19.5498 30.6582 19.6241 30.5442 19.6694C30.4232 19.7186 30.2938 19.7436 30.1632 19.7431C30.0334 19.7449 29.9045 19.7232 29.7824 19.6792C29.6726 19.6393 29.5723 19.5772 29.4877 19.4967C29.4043 19.4161 29.3387 19.3188 29.2954 19.2111C29.2485 19.0932 29.2252 18.9673 29.2266 18.8404C29.2266 18.7144 29.2483 18.5977 29.2933 18.4871C29.3367 18.3763 29.3995 18.2813 29.4779 18.2015C29.5565 18.1201 29.6508 18.058 29.7567 18.0095C29.8686 17.9602 29.9898 17.9357 30.1121 17.9376C30.2516 17.9376 30.3811 17.9551 30.499 17.9899C30.6168 18.0249 30.7169 18.0832 30.7995 18.1649L30.656 18.4075C30.5868 18.3447 30.5053 18.297 30.4166 18.2675C30.3322 18.2404 30.2441 18.2267 30.1555 18.2269C29.9995 18.2274 29.8497 18.2879 29.7371 18.3959C29.6807 18.4511 29.636 18.5172 29.6055 18.59C29.5722 18.6656 29.5565 18.7491 29.5565 18.8422C29.5565 18.9374 29.5743 19.0228 29.6076 19.0966C29.641 19.1724 29.686 19.2366 29.743 19.2907C29.7999 19.3453 29.8669 19.3859 29.9434 19.4132C30.0199 19.4403 30.1004 19.4559 30.1868 19.4559C30.2929 19.4559 30.3872 19.4344 30.4714 19.3936C30.553 19.3542 30.6264 19.2995 30.6875 19.2326L30.8347 19.4538ZM30.9938 17.9745H32.5861V18.2813H31.9461V19.7023H31.6357V18.2813H30.9957V17.9745H30.9938Z" fill="black"/>
<path fill-rule="evenodd" clip-rule="evenodd" d="M34.0302 19.679C34.1481 19.6421 34.2482 19.5856 34.3345 19.5082L34.2402 19.2674C34.1833 19.318 34.1068 19.3607 34.0146 19.3957C33.9222 19.4307 33.8181 19.448 33.7043 19.448C33.5335 19.448 33.3921 19.4034 33.2801 19.3122C33.1683 19.2207 33.1074 19.0929 33.0936 18.9295H34.4367C34.4505 18.8693 34.4563 18.8014 34.4563 18.7219C34.4563 18.6033 34.4346 18.4967 34.3914 18.3996C34.3512 18.3054 34.2925 18.2202 34.2188 18.149C34.144 18.0786 34.0558 18.0238 33.9595 17.988C33.8587 17.9489 33.7515 17.9291 33.6434 17.9297C33.498 17.9297 33.3704 17.9549 33.2586 18.0016C33.1529 18.046 33.0574 18.1114 32.9777 18.1938C32.9003 18.2758 32.8409 18.373 32.8031 18.4792C32.7617 18.5923 32.741 18.712 32.7422 18.8325C32.7422 18.9685 32.7658 19.0926 32.809 19.2035C32.851 19.3108 32.9152 19.4081 32.9975 19.4888C33.078 19.5681 33.176 19.6286 33.292 19.6713C33.4161 19.7153 33.5471 19.737 33.6788 19.7352C33.7981 19.7345 33.9166 19.7154 34.0302 19.679ZM33.2448 18.349C33.341 18.2617 33.4686 18.219 33.6296 18.219C33.7808 18.219 33.9026 18.2599 33.991 18.3415C34.0795 18.423 34.1264 18.5357 34.1343 18.6792H33.074C33.0891 18.5521 33.1498 18.4346 33.2448 18.349Z" fill="black"/>
<path d="M34.8828 17.9688H35.1656L35.8371 18.8251L36.4732 17.9688H36.7481V19.6968H36.438V18.4368L35.8332 19.2385H35.8213L35.1931 18.4366V19.6966H34.8828V17.9688Z" fill="black"/>
<path fill-rule="evenodd" clip-rule="evenodd" d="M37.59 17.9744C37.4959 17.999 37.4059 18.0375 37.3231 18.0887L37.4055 18.3337C37.4762 18.2987 37.5469 18.2696 37.6176 18.2444C37.6883 18.2189 37.7786 18.2073 37.8866 18.2073C37.9729 18.2073 38.0418 18.221 38.0947 18.2481C38.1477 18.2733 38.1869 18.3123 38.2144 18.3589C38.242 18.4056 38.2597 18.4637 38.2695 18.5316C38.2793 18.5995 38.2833 18.6732 38.2833 18.753C38.2198 18.7088 38.1474 18.6789 38.0712 18.6655C37.9975 18.6509 37.9225 18.6431 37.8474 18.6422C37.755 18.6422 37.6687 18.656 37.5861 18.6791C37.5037 18.7024 37.433 18.7374 37.3761 18.7841C37.318 18.8306 37.271 18.8896 37.2386 18.9567C37.204 19.0302 37.1866 19.1105 37.1875 19.1917C37.1875 19.3606 37.2368 19.4927 37.3348 19.586C37.433 19.6791 37.5625 19.7256 37.7235 19.7256C37.8689 19.7256 37.9848 19.7004 38.073 19.65C38.1615 19.5993 38.2322 19.5412 38.2833 19.4752V19.6985H38.5738V18.6385C38.5738 18.4131 38.5248 18.2385 38.4247 18.116C38.3264 17.9938 38.1517 17.9317 37.9043 17.9317C37.7942 17.9317 37.6901 17.9471 37.59 17.9744ZM38.1087 19.3744C38.038 19.4248 37.9456 19.4479 37.8318 19.4479C37.7317 19.4479 37.653 19.4227 37.5982 19.3742C37.5431 19.3238 37.5156 19.2577 37.5156 19.1761C37.5156 19.1278 37.5254 19.0869 37.5471 19.0501C37.5688 19.0132 37.5982 18.984 37.6316 18.9607C37.6681 18.9363 37.7086 18.9185 37.7513 18.9082C37.7965 18.8965 37.8416 18.8907 37.8887 18.8907C38.042 18.8907 38.1734 18.9276 38.2814 19.0053V19.2246C38.2305 19.2816 38.1725 19.3321 38.1087 19.3744ZM41.3131 17.3607C41.3758 17.3318 41.4346 17.2833 41.4897 17.2114L41.3208 16.9688C41.2776 17.0271 41.2286 17.0677 41.1735 17.0891C41.1152 17.112 41.0547 17.1288 40.9929 17.1395L40.9341 17.15C40.883 17.1589 40.8282 17.1687 40.7692 17.1785C40.6745 17.196 40.5822 17.2247 40.4943 17.2639C40.3548 17.3241 40.243 17.4055 40.1585 17.5084C40.0741 17.6113 40.0073 17.7278 39.9621 17.8561C39.9162 17.9861 39.8853 18.1209 39.8699 18.2579C39.854 18.3979 39.8463 18.5316 39.8463 18.6597C39.8463 18.8249 39.8678 18.9742 39.911 19.1082C39.9544 19.2423 40.015 19.3548 40.0955 19.446C40.176 19.5394 40.2724 19.6094 40.3863 19.6598C40.5001 19.7102 40.6278 19.7354 40.771 19.7354C40.9026 19.7354 41.0244 19.7102 41.1343 19.6635C41.2403 19.6186 41.3364 19.5534 41.4171 19.4715C41.4955 19.3917 41.5585 19.2965 41.6017 19.1898C41.6467 19.083 41.6684 18.9684 41.6684 18.848C41.6684 18.718 41.6488 18.5997 41.6115 18.4947C41.5771 18.3946 41.5223 18.3028 41.4505 18.225C41.3786 18.1485 41.2907 18.0888 41.1931 18.05C41.0857 18.0077 40.971 17.9866 40.8555 17.9879C40.7808 17.9879 40.7083 17.9977 40.6376 18.0171C40.5688 18.0365 40.5028 18.0646 40.4411 18.1006C40.3813 18.1349 40.3264 18.1773 40.2782 18.2266C40.2311 18.2754 40.1919 18.3298 40.1644 18.3918H40.1564C40.1625 18.3123 40.1723 18.2308 40.1898 18.1473C40.2075 18.0638 40.233 17.984 40.2666 17.9084C40.2999 17.8328 40.3431 17.7646 40.3961 17.7026C40.4529 17.6399 40.5225 17.5903 40.6002 17.557C40.6857 17.5163 40.7762 17.4869 40.8693 17.4697L40.9309 17.4585C40.9922 17.4473 41.0508 17.4366 41.1068 17.4249C41.1815 17.4095 41.2501 17.3897 41.3131 17.3607ZM40.2213 19.0209C40.1909 18.9229 40.1764 18.8206 40.1781 18.718C40.1913 18.6591 40.2153 18.6032 40.2488 18.5531C40.2822 18.5006 40.3254 18.4541 40.3765 18.4131C40.4918 18.3227 40.6343 18.2742 40.7808 18.2754C40.9635 18.2754 41.101 18.3316 41.1971 18.4425C41.2935 18.5549 41.3406 18.6947 41.3406 18.8636C41.3406 18.9472 41.3247 19.023 41.2974 19.0928C41.2709 19.1616 41.2308 19.2244 41.1795 19.2774C41.1283 19.3304 41.0669 19.3726 40.999 19.4015C40.9283 19.4325 40.8515 19.4481 40.7652 19.4481C40.6789 19.4481 40.6002 19.4306 40.5277 19.3956C40.4555 19.3613 40.3918 19.3116 40.341 19.25C40.2878 19.1814 40.2473 19.1038 40.2213 19.0209ZM44.0482 17.9686H43.7378V19.6966H44.0482V17.9686ZM42.1159 17.9686H42.4263V18.487H42.713C42.8484 18.487 42.9583 18.5045 43.0467 18.5374C43.1351 18.5706 43.2058 18.6151 43.2588 18.6695C43.3118 18.7239 43.3491 18.788 43.3708 18.8597C43.3923 18.9315 43.4042 19.0053 43.4042 19.083C43.4042 19.1607 43.3923 19.2346 43.3668 19.3084C43.3433 19.3821 43.302 19.446 43.2469 19.5044C43.1921 19.5627 43.1174 19.6094 43.0231 19.6444C42.9289 19.6791 42.815 19.6985 42.6776 19.6985H42.1141V17.9686H42.1159ZM42.4263 18.7761V19.4092H42.6521C42.8073 19.4092 42.9172 19.3821 42.98 19.3275C43.043 19.2731 43.0742 19.1957 43.0742 19.0928C43.0742 18.9878 43.0409 18.9084 42.9781 18.8538C42.9132 18.7995 42.8052 18.7722 42.6561 18.7722H42.4263V18.7761Z" fill="black"/>
<path d="M46.1043 19.4538C46.0296 19.549 45.9314 19.6209 45.8135 19.6694C45.6926 19.7186 45.5633 19.7436 45.4327 19.7431C45.3029 19.7449 45.1739 19.7232 45.0517 19.6792C44.942 19.6394 44.8417 19.5773 44.7573 19.4967C44.6738 19.416 44.6082 19.3187 44.5648 19.2111C44.5181 19.0932 44.4948 18.9672 44.4962 18.8404C44.4962 18.7144 44.5176 18.5977 44.5629 18.4871C44.6061 18.3763 44.6688 18.2813 44.7475 18.2015C44.8261 18.1201 44.9201 18.058 45.0263 18.0095C45.1382 17.9602 45.2594 17.9357 45.3816 17.9376C45.5209 17.9376 45.6507 17.9551 45.7685 17.9899C45.8863 18.0249 45.9864 18.0832 46.0688 18.1649L45.9255 18.4075C45.8562 18.3447 45.7746 18.2971 45.6859 18.2675C45.6016 18.2404 45.5134 18.2267 45.4248 18.2269C45.3464 18.2269 45.2717 18.2423 45.1989 18.2715C45.1275 18.3003 45.0622 18.3425 45.0067 18.3959C44.9502 18.4511 44.9055 18.5171 44.8751 18.59C44.8417 18.6656 44.8261 18.7491 44.8261 18.8422C44.8261 18.9374 44.8436 19.0228 44.8769 19.0966C44.9103 19.1724 44.9556 19.2366 45.0125 19.2907C45.0694 19.3453 45.1362 19.3859 45.2127 19.4132C45.2895 19.4403 45.37 19.4559 45.4563 19.4559C45.5622 19.4559 45.6565 19.4344 45.741 19.3936C45.8226 19.3542 45.8959 19.2995 45.957 19.2326L46.1043 19.4538ZM46.2632 17.9745H47.8556V18.2813H47.2154V19.7023H46.9053V18.2813H46.2653V17.9745H46.2632Z" fill="black"/>
<path fill-rule="evenodd" clip-rule="evenodd" d="M48.5017 17.9688H48.1914V20.4654H48.5017V19.617C48.5645 19.6579 48.6392 19.687 48.7255 19.7064C48.8118 19.7258 48.9021 19.7353 48.9945 19.7353C49.132 19.7353 49.2556 19.7101 49.3676 19.6637C49.475 19.6177 49.5724 19.5512 49.6542 19.4677C49.7347 19.3839 49.7956 19.2869 49.8387 19.1723C49.8819 19.058 49.9036 18.9355 49.9036 18.8055C49.9036 18.6772 49.884 18.5589 49.8467 18.452C49.8115 18.3505 49.7568 18.2569 49.6857 18.1764C49.6158 18.098 49.5292 18.0362 49.4323 17.9958C49.3263 17.9503 49.2118 17.9278 49.0965 17.9298C48.9749 17.9298 48.8611 17.9531 48.753 17.9998C48.645 18.0465 48.5605 18.1025 48.5017 18.1725V17.9688ZM48.7178 18.2891C48.8062 18.2425 48.9024 18.2191 49.0064 18.2191C49.0967 18.2191 49.1772 18.2327 49.25 18.2618C49.3207 18.291 49.3795 18.3318 49.4288 18.3862C49.4778 18.4406 49.5151 18.5029 49.5387 18.5764C49.5641 18.6501 49.576 18.7299 49.576 18.8172C49.576 18.9105 49.5601 18.9938 49.5328 19.0715C49.5071 19.1452 49.4662 19.2126 49.4129 19.2696C49.3593 19.3259 49.2944 19.3702 49.2225 19.3996C49.1423 19.4331 49.056 19.4497 48.9691 19.4481C48.8849 19.4481 48.8062 19.4385 48.7316 19.4192C48.6498 19.3969 48.5723 19.3615 48.502 19.3142V18.4578C48.5568 18.392 48.6296 18.3358 48.7178 18.2891ZM52.2833 17.9685H51.973V19.6966H52.2833V17.9685ZM50.3492 17.9685H50.6596V18.487H50.9461C51.0817 18.487 51.1916 18.5045 51.28 18.5374C51.3684 18.5705 51.4391 18.6151 51.4921 18.6695C51.5451 18.7238 51.5824 18.788 51.6039 18.8596C51.6256 18.9315 51.6372 19.0052 51.6372 19.0829C51.6372 19.1606 51.6256 19.2346 51.6001 19.3083C51.5766 19.3821 51.5353 19.446 51.4802 19.5043C51.4254 19.5627 51.3507 19.6093 51.2564 19.6443C51.1622 19.6791 51.0483 19.6985 50.9109 19.6985H50.3474V17.9685H50.3492ZM50.6617 18.7761V19.4091H50.8875C51.0425 19.4091 51.1526 19.3821 51.2154 19.3275C51.2781 19.2731 51.3096 19.1956 51.3096 19.0927C51.3096 18.9877 51.2763 18.9084 51.2135 18.8538C51.1486 18.7994 51.0406 18.7721 50.8915 18.7721H50.6617V18.7761Z" fill="black"/>
<path d="M53.7734 18.8017L54.437 19.6968H54.0562L53.5436 18.9977L53.0233 19.6968H52.6621L53.3217 18.8171L52.7013 17.9688H53.0823L53.5555 18.6211L54.0364 17.9688H54.3978L53.7734 18.8017ZM26.5165 21.8325H25.5642V23.2731H25.2539V21.5452H26.8266V23.2731H26.5165V21.8325ZM28.5877 21.8518H27.9752L27.9554 22.143C27.9339 22.3897 27.9045 22.5878 27.8632 22.739C27.8219 22.8906 27.7708 23.0071 27.712 23.0885C27.6532 23.1702 27.5844 23.2264 27.5058 23.2537C27.4247 23.2831 27.3389 23.2976 27.2526 23.2964L27.2291 22.9973C27.2624 22.9991 27.3016 22.9914 27.3448 22.9721C27.3882 22.9527 27.4313 22.91 27.4724 22.8461C27.5137 22.7798 27.551 22.6867 27.5844 22.5663C27.6178 22.444 27.6395 22.2849 27.6511 22.0847L27.6826 21.5469H28.8981V23.2749H28.5877V21.8518Z" fill="black"/>
<path fill-rule="evenodd" clip-rule="evenodd" d="M29.7307 21.5505C29.6303 21.5776 29.54 21.6163 29.4635 21.6648L29.5461 21.9096C29.6168 21.8746 29.6875 21.8454 29.758 21.8202C29.8287 21.795 29.9192 21.7834 30.027 21.7834C30.1136 21.7834 30.1822 21.7969 30.2351 21.824C30.2883 21.8494 30.3275 21.8881 30.3551 21.9348C30.3824 21.9815 30.4001 22.0398 30.4099 22.1075C30.4197 22.1756 30.4237 22.2493 30.4237 22.3289C30.3602 22.2847 30.2878 22.2549 30.2116 22.2416C30.1379 22.227 30.0629 22.2192 29.9878 22.2183C29.8956 22.2183 29.8091 22.2318 29.7267 22.2552C29.6441 22.2785 29.5734 22.3135 29.5165 22.3602C29.4584 22.4068 29.4114 22.4657 29.379 22.5328C29.3445 22.6063 29.3271 22.6866 29.3282 22.7678C29.3282 22.9365 29.3772 23.0688 29.4754 23.1619C29.5734 23.255 29.7031 23.3017 29.8641 23.3017C30.0095 23.3017 30.1252 23.2765 30.2137 23.2258C30.3019 23.1754 30.3726 23.1171 30.4237 23.0511V23.2744H30.7144V22.2143C30.7144 21.9892 30.6652 21.8144 30.5651 21.6921C30.4668 21.5696 30.2921 21.5078 30.0447 21.5078C29.9386 21.5079 29.833 21.5224 29.7307 21.5505ZM30.251 22.95C30.1805 23.0007 30.0881 23.024 29.9743 23.024C29.8721 23.024 29.7955 22.9988 29.7407 22.95C29.6856 22.8996 29.6581 22.8336 29.6581 22.7522C29.6581 22.7036 29.6679 22.6628 29.6896 22.6259C29.7111 22.5891 29.7407 22.5599 29.7741 22.5366C29.8074 22.5132 29.8485 22.4957 29.8938 22.4841C29.9386 22.4725 29.9848 22.4667 30.0312 22.4668C30.1843 22.4668 30.3159 22.5037 30.4239 22.5811V22.8005C30.3729 22.8575 30.3148 22.9078 30.251 22.95Z" fill="black"/>
<path d="M31.0195 21.5391H32.612V21.8457H31.9718V23.2669H31.6617V21.8459H31.0216V21.5391H31.0195Z" fill="black"/>
<path fill-rule="evenodd" clip-rule="evenodd" d="M34.0656 23.2578C34.1834 23.2209 34.2835 23.1644 34.3699 23.087L34.2756 22.8462C34.2187 22.8968 34.1421 22.9395 34.0497 22.9745C33.9576 23.0095 33.8535 23.0268 33.7396 23.0268C33.5688 23.0268 33.4274 22.9822 33.3154 22.891C33.2034 22.7997 33.1428 22.6716 33.129 22.5083H34.4721C34.4856 22.4483 34.4917 22.3802 34.4917 22.3006C34.4917 22.1823 34.47 22.0755 34.4268 21.9784C34.3866 21.8842 34.3278 21.799 34.2539 21.7281C34.1793 21.6575 34.0912 21.6026 33.9949 21.5668C33.8941 21.5277 33.7869 21.5079 33.6787 21.5085C33.5334 21.5085 33.4057 21.5337 33.294 21.5804C33.1883 21.6247 33.0927 21.6901 33.0131 21.7726C32.9357 21.8546 32.8762 21.9518 32.8383 22.058C32.7969 22.1711 32.7763 22.2908 32.7774 22.4112C32.7774 22.5473 32.801 22.6714 32.8441 22.7822C32.8875 22.8928 32.9522 22.988 33.0327 23.0676C33.1132 23.1472 33.2114 23.2074 33.3273 23.2501C33.4514 23.2942 33.5823 23.3159 33.714 23.3142C33.8299 23.3142 33.9478 23.2946 34.0656 23.2578ZM33.2783 21.9259C33.3745 21.8387 33.5021 21.796 33.6631 21.796C33.8164 21.796 33.9361 21.8386 34.0245 21.9182C34.1127 21.9999 34.1599 22.1123 34.1678 22.2561H33.1076C33.1225 22.1289 33.1832 22.0116 33.2783 21.9259ZM34.6429 21.5475H35.0356L35.6343 22.3804L34.9943 23.2753H34.6135L35.2848 22.3802L34.6429 21.5475ZM35.7108 21.5475H36.0212V23.2753H35.7108V21.5475ZM37.1304 23.2753L36.4472 22.3802L37.0854 21.5472H36.7004L36.0977 22.3802L36.7456 23.2753H37.1304ZM38.5481 23.2578C38.666 23.2209 38.766 23.1644 38.8524 23.087L38.7581 22.8462C38.7012 22.8968 38.6247 22.9395 38.5325 22.9745C38.4401 23.0095 38.336 23.0268 38.2222 23.0268C38.0514 23.0268 37.91 22.9822 37.798 22.891C37.6862 22.7997 37.6253 22.6716 37.6115 22.5083H38.9546C38.9683 22.4483 38.9742 22.3802 38.9742 22.3006C38.9742 22.1823 38.9527 22.0755 38.9093 21.9784C38.8691 21.8842 38.8104 21.7991 38.7367 21.7281C38.6619 21.6575 38.5738 21.6026 38.4774 21.5668C38.3766 21.5277 38.2694 21.5079 38.1613 21.5085C38.0161 21.5085 37.8885 21.5337 37.7765 21.5804C37.6709 21.6248 37.5754 21.6902 37.4958 21.7726C37.4183 21.8545 37.3588 21.9517 37.321 22.058C37.2796 22.1711 37.2589 22.2908 37.2601 22.4112C37.2601 22.5473 37.2837 22.6714 37.3269 22.7822C37.37 22.8928 37.4349 22.988 37.5154 23.0676C37.5959 23.1472 37.6939 23.2074 37.8099 23.2501C37.934 23.2942 38.065 23.3159 38.1967 23.3142C38.316 23.3133 38.4345 23.2943 38.5481 23.2578ZM37.7609 21.9259C37.8572 21.8387 37.9849 21.796 38.1459 21.796C38.2971 21.796 38.4186 21.8386 38.5071 21.9182C38.5955 21.9999 38.6426 22.1123 38.6503 22.2561H37.5901C37.605 22.1289 37.6657 22.0116 37.7609 21.9259ZM40.233 20.9669C40.0503 20.9669 39.9502 20.8659 39.9346 20.6641H39.642C39.642 20.7415 39.6557 20.8115 39.6812 20.8776C39.7068 20.9436 39.7442 20.9998 39.7932 21.0465C39.8422 21.0932 39.9052 21.13 39.9777 21.159C40.0503 21.1881 40.1348 21.2017 40.2309 21.2017C40.3193 21.2017 40.398 21.1881 40.4687 21.159C40.5394 21.1319 40.5982 21.0932 40.6493 21.0465C40.6983 20.9998 40.7377 20.9436 40.765 20.8776C40.7925 20.8115 40.8063 20.7415 40.8063 20.6641H40.5158C40.502 20.8659 40.4057 20.9669 40.233 20.9669ZM39.3944 21.5472V23.2753H39.7047L40.7139 21.988V23.2753H41.0242V21.5472H40.7139L39.7047 22.8345V21.5472H39.3944Z" fill="black"/>
</g>
<defs>
<clipPath id="clip0_6450_40392">
<rect width="55.766" height="27.9997" fill="white"/>
</clipPath>
</defs>
</svg>