<svg xmlns="http://www.w3.org/2000/svg" width="94" height="24" viewBox="0 0 94 24" fill="none">
<g clip-path="url(#clip0_6003_60390)">
<path d="M27.9534 11.2265L28.3109 10.1097L27.128 10.1459C27.028 10.1459 26.3016 10.1258 25.5968 9.62715C25.6493 9.6322 25.7019 9.6392 25.7555 9.6392C26.4809 9.6392 27.1826 9.213 27.4639 8.6038L27.973 7.5031C27.3351 7.51115 26.7519 7.43275 26.7519 7.43275C26.7467 7.4317 26.2871 7.37445 25.7555 6.84465C25.3742 6.4647 24.9023 6.2636 24.3911 6.2636C24.1676 6.2636 23.9676 6.3028 23.7956 6.3561C23.8224 6.26665 23.8481 6.17615 23.8626 6.08265C24.0254 5.0523 23.3453 4.2662 23.3453 4.26726L22.4561 3.19266L21.9048 4.4552C21.9027 4.45923 21.7636 4.75481 21.5143 4.89952C21.439 4.52858 21.2546 4.11144 20.8599 3.71234C20.1159 2.96042 19.2102 2.84883 18.7362 2.84883C18.5167 2.84883 18.3601 2.87197 18.3219 2.87798L17.2483 3.08411C17.3101 2.84988 17.442 2.44272 17.6831 2.07581L18.2757 1.17515L16.7846 1.34101L16.3096 0.356856L15.3905 0.819285L14.5404 0L13.6923 0.819285L12.7701 0.356856L12.296 1.34101L10.8061 1.17515L11.3996 2.07581C11.6407 2.44272 11.7726 2.84882 11.8334 3.08305L10.8091 2.88605L10.7741 2.88003C10.7226 2.87197 10.567 2.84883 10.3465 2.84883C9.8725 2.84883 8.96679 2.96141 8.22483 3.71234C7.82914 4.11045 7.64472 4.52858 7.56848 4.89952C7.32121 4.75679 7.18308 4.46525 7.18308 4.46525L6.63079 3.19563L5.72715 4.27731C5.61684 4.41699 5.07179 5.1559 5.22015 6.0847C5.23563 6.1772 5.26035 6.26765 5.28715 6.35715C5.11611 6.30385 4.91618 6.26465 4.69261 6.26465C4.1815 6.26465 3.70958 6.4657 3.3273 6.8457C2.7976 7.37345 2.3401 7.43275 2.34427 7.43275C2.34427 7.43275 1.86097 7.51715 1.1129 7.50405L1.61882 8.60485C1.90016 9.21505 2.60285 9.64025 3.3273 9.64025C3.38191 9.64025 3.43443 9.63315 3.48803 9.62815C2.78528 10.1267 2.05882 10.1469 1.97121 10.1479L0.765625 10.1097L1.1304 11.2255C1.31384 11.8005 1.9269 12.7534 3.10164 12.8559C2.97383 13.3787 2.69047 13.9638 2.06811 14.2161L1.17061 14.5769L1.66003 15.4083C1.93619 15.8566 2.58434 16.3813 3.50756 16.3813C3.7075 16.3803 3.90015 16.3612 4.08567 16.323C4.13308 16.5281 4.19281 16.7332 4.26291 16.9362C4.538 17.7344 4.30103 18.2913 4.29793 18.2973L3.85483 19.203L4.84406 19.4573C4.85644 19.4614 5.15523 19.5408 5.5293 19.5408C5.69934 19.5408 5.86107 19.5237 6.01361 19.4886C6.12896 19.4624 6.23928 19.4272 6.34537 19.385C6.47316 19.6091 6.62875 19.8132 6.81012 19.9961C7.44385 20.6304 8.34136 20.9521 9.4789 20.9521H9.48303L10.295 20.9421L8.61745 21.6216L9.89108 22.2218C10.3537 22.4419 10.9029 22.7022 11.4614 22.9013L11.3027 23.3255L11.7417 23.5205C11.7808 23.5375 12.6248 23.9065 14.0283 23.9849C14.0283 23.9849 14.3673 24 14.5537 24C14.7402 24 15.0751 23.9839 15.0751 23.9839C16.4693 23.9035 17.307 23.5386 17.3462 23.5205L17.7862 23.3245L17.6254 22.8993C18.2004 22.6942 18.7692 22.4237 19.2123 22.2127L20.4622 21.6206L18.7897 20.9401L19.6048 20.9501C20.7435 20.9501 21.642 20.6285 22.2747 19.9932C22.455 19.8112 22.6106 19.6072 22.7394 19.3829C22.8456 19.4252 22.9568 19.4604 23.0722 19.4865C23.2237 19.5217 23.3855 19.5388 23.5555 19.5388C23.9233 19.5388 24.2253 19.4594 24.2335 19.4573L25.2269 19.201L24.7941 18.3124C24.7838 18.2892 24.5468 17.7333 24.8219 16.9342C24.8919 16.7302 24.9507 16.5251 24.9981 16.321C25.1846 16.3592 25.3794 16.3793 25.5803 16.3793C26.756 16.3793 27.3196 15.5721 27.4289 15.3972L27.9132 14.575L27.0157 14.215C26.3923 13.9627 26.11 13.3767 25.9832 12.855C27.1414 12.7585 27.7637 11.8055 27.9534 11.2265ZM11.9117 3.46807L11.8994 3.4711L11.9097 3.45802L11.9117 3.46807Z" fill="white"/>
<path d="M14.5403 3.42188C13.5903 3.42287 12.8783 3.72644 12.7227 4.0833L14.5403 4.78299L16.358 4.0833C16.2034 3.72644 15.4914 3.42287 14.5403 3.42188Z" fill="white"/>
<path d="M14.5589 21.9389H14.5568H14.5413H14.5238H14.5228C13.9468 21.9429 13.1544 21.8273 12.7721 21.7188L12.3125 22.932C12.6155 23.0376 13.6418 23.2386 14.5413 23.2386C15.4388 23.2386 16.4662 23.0366 16.7681 22.932L16.3095 21.7188C15.9263 21.8283 15.1348 21.9429 14.5589 21.9389Z" fill="white"/>
<path d="M18.0375 20.7344C17.6956 20.9234 16.9323 21.2068 16.4883 21.3385L16.8612 22.3407C17.5482 22.1577 18.1147 21.9437 18.5835 21.7145L17.8099 21.4631L18.0375 20.7344Z" fill="white"/>
<path d="M11.0459 20.7344L11.2746 21.4631L10.5 21.7145C10.9676 21.9437 11.5373 22.1577 12.2212 22.3407L12.5941 21.3385C12.1522 21.2068 11.3879 20.9223 11.0459 20.7344Z" fill="white"/>
<path d="M14.543 2.25976C15.2592 2.25976 15.9619 2.42662 16.5018 2.72021C16.5513 2.55831 16.6204 2.3623 16.7141 2.15723L16.5101 2.18136L16.2958 2.2035L16.2051 2.01351L15.932 1.45059L15.4343 1.70385L15.2406 1.80037L15.0861 1.65163L14.5451 1.12891L14.0051 1.65163L13.8506 1.80037L13.6569 1.70385L13.1561 1.45059L12.8861 2.01351L12.7934 2.2035L12.579 2.18136L12.375 2.15723C12.4688 2.36329 12.5368 2.55831 12.5873 2.72021C13.1283 2.42662 13.8289 2.25976 14.543 2.25976Z" fill="white"/>
<path d="M25.4756 8.76445C25.5683 8.7956 25.663 8.80965 25.7568 8.80965C26.1616 8.80965 26.5531 8.55435 26.688 8.2618C26.688 8.2618 25.9453 8.2176 25.147 7.42645C24.8926 7.1701 24.6237 7.09375 24.393 7.09375C24.0345 7.09375 23.7656 7.2787 23.7656 7.2787C24.7298 7.7793 24.9265 8.5835 25.4756 8.76445Z" fill="white"/>
<path d="M3.32472 8.80965C3.41842 8.80965 3.51321 8.7956 3.60388 8.76445C4.15494 8.5835 4.35272 7.7793 5.3169 7.2787C5.3169 7.2787 5.04696 7.09375 4.69058 7.09375C4.45881 7.09375 4.18995 7.1701 3.93448 7.42645C3.13724 8.2176 2.39453 8.2618 2.39453 8.2618C2.52742 8.55435 2.91988 8.80965 3.32472 8.80965Z" fill="white"/>
<path d="M25.738 12.0332C25.7545 12.0342 25.7689 12.0342 25.7864 12.0342C26.7972 12.0342 27.1404 10.9776 27.1404 10.9776H27.1208C26.9354 10.9776 25.4319 10.9355 24.3696 9.61756C23.6699 8.75111 23.097 7.98911 21.9645 7.68951L21.8533 7.67041L21.8285 7.55986C21.7976 7.39096 21.9161 7.23316 22.1851 7.06226C23.7472 6.06411 22.6869 4.79144 22.6869 4.79144C22.6869 4.79144 22.2407 5.80976 21.2423 5.80976C21.2185 5.80976 21.1927 5.80871 21.168 5.80871C21.0547 5.80271 20.9455 5.79866 20.8352 5.77561L20.6507 5.74036C20.6507 5.74036 20.9352 4.98547 20.2489 4.29185C19.7316 3.76814 19.102 3.67969 18.7383 3.67969C18.5548 3.67969 18.4384 3.70276 18.4384 3.70276C18.7836 4.14304 19.033 4.87288 18.6342 5.32321C18.2901 5.71021 17.4492 5.72931 17.4492 6.30631C17.4492 6.55061 17.6831 6.83611 18.1035 7.09241C19.3679 7.86946 20.6229 8.89981 21.1443 10.2811C21.7966 12.004 21.0619 13.147 20.0129 13.8024C20.0129 13.8024 20.3416 14.0979 20.8188 14.1351C20.9156 14.1442 21.0104 14.1482 21.099 14.1482C22.1057 14.1482 22.6261 13.6878 22.6261 13.6878C22.6261 13.6878 22.5405 14.3241 22.016 14.9152C21.5328 15.461 20.8981 15.7817 19.9305 15.7958C19.9305 15.7958 19.8996 16.234 20.3282 16.613C20.6023 16.8523 21.236 16.9307 21.236 16.9307C21.236 16.9307 20.05 17.1649 19.9192 18.8738C19.848 19.7996 19.6059 20.1213 19.6059 20.1213H19.6276C22.3798 20.1213 22.3087 17.8183 22.3087 17.8183C22.3087 17.8183 22.5004 18.4998 23.268 18.6778C23.3607 18.7019 23.4597 18.711 23.5545 18.711C23.8018 18.711 24.0161 18.6547 24.0161 18.6547C24.0161 18.6547 23.6143 17.8274 24.013 16.6703C24.3438 15.7103 24.2902 14.9986 24.2902 14.9986C24.2902 14.9986 24.6611 15.5455 25.5804 15.5505H25.5896C26.3552 15.5505 26.689 14.9846 26.689 14.9846C24.8539 14.2417 25.0352 11.8432 25.0352 11.8432C25.0352 11.8432 25.2733 12.0161 25.738 12.0332ZM25.1856 14.5382C24.4396 14.1794 23.9677 13.2264 23.8533 12.8826C23.7296 14.7724 22.7837 16.0843 21.6781 17.3468C21.1041 18.0012 20.9043 18.6375 20.9043 18.6375C20.9043 18.6375 21.0145 17.9168 21.5111 17.3298C22.5426 16.1204 23.5226 14.6156 23.5957 12.8756C23.6462 11.6612 23.3257 10.6761 22.826 9.86491C23.1052 10.7103 23.0661 11.7457 22.117 12.7117C22.117 12.7117 24.0058 10.5032 21.3648 8.23941C20.3076 7.37796 19.1515 6.84616 18.5559 6.46921C20.7074 7.15376 21.7575 6.39981 21.7575 6.39981C21.0701 6.98081 20.1809 6.97076 19.6296 6.88736C19.779 6.95876 19.9347 7.03311 20.1026 7.12056C21.9161 8.08161 23.5463 9.66281 23.8245 11.8533V11.8361C24.2469 13.9863 25.1856 14.5382 25.1856 14.5382Z" fill="white"/>
<path d="M7.84573 16.9307C7.84573 16.9307 8.47947 16.8533 8.75358 16.613C9.18115 16.234 9.15135 15.7958 9.15135 15.7958C8.18274 15.7827 7.54901 15.461 7.06267 14.9162C6.54226 14.3251 6.45573 13.6888 6.45573 13.6888C6.45573 13.6888 6.97604 14.1492 7.98177 14.1492C8.07248 14.1492 8.16624 14.1452 8.26306 14.1361C8.74018 14.0989 9.06991 13.8034 9.06991 13.8034C8.02089 13.148 7.28524 12.004 7.93644 10.2811C8.45889 8.90081 9.71286 7.86946 10.9773 7.09241C11.3977 6.83611 11.6315 6.55156 11.6315 6.30631C11.6315 5.72931 10.7917 5.71021 10.4475 5.32321C10.0489 4.87288 10.2992 4.14205 10.6434 3.70276C10.6434 3.70276 10.529 3.67969 10.3445 3.67969C9.98183 3.67969 9.35222 3.76814 8.83497 4.29185C8.14663 4.98547 8.4321 5.74036 8.4321 5.74036L8.24763 5.77561C8.13742 5.79866 8.0271 5.80271 7.9148 5.80871C7.88908 5.80871 7.86636 5.80976 7.84166 5.80976C6.84112 5.80976 6.397 4.79243 6.397 4.79243C6.397 4.79243 5.33668 6.06511 6.89776 7.06326C7.16672 7.23416 7.28422 7.39196 7.2533 7.56086L7.2285 7.67146L7.11518 7.69056C5.98482 7.99011 5.41089 8.75206 4.71123 9.61856C3.65089 10.9345 2.14956 10.9776 1.96208 10.9776H1.94141C1.94141 10.9776 2.28457 12.0342 3.29541 12.0342C3.31191 12.0342 3.32632 12.0342 3.34383 12.0332C3.80854 12.0171 4.04759 11.8432 4.04759 11.8432C4.04759 11.8432 4.22692 14.2406 2.3938 14.9846C2.3938 14.9846 2.72767 15.5505 3.49325 15.5505H3.50254C4.42267 15.5455 4.79264 14.9986 4.79264 14.9986C4.79264 14.9986 4.73904 15.7103 5.0688 16.6703C5.46752 17.8274 5.06772 18.6547 5.06772 18.6547C5.06772 18.6547 5.28207 18.711 5.52833 18.711C5.62415 18.711 5.72206 18.7019 5.81378 18.6778C6.58035 18.4998 6.77308 17.8183 6.77308 17.8183C6.77308 17.8183 6.703 20.1213 9.45531 20.1213H9.47481C9.47481 20.1213 9.23376 19.7996 9.16368 18.8738C9.03182 17.1649 7.84573 16.9307 7.84573 16.9307ZM7.40376 17.3468C6.29809 16.0843 5.35318 14.7724 5.22846 12.8826C5.11412 13.2254 4.64422 14.1794 3.89824 14.5382C3.89824 14.5382 4.83587 13.9863 5.25735 11.8361V11.8533C5.53661 9.66386 7.1657 8.08161 8.98022 7.12056C9.14616 7.03211 9.30379 6.95776 9.4522 6.88736C8.90092 6.97076 8.01167 6.98081 7.32435 6.39981C7.32435 6.39981 8.37435 7.15376 10.5249 6.46921C9.92932 6.84616 8.77416 7.37796 7.71693 8.23941C5.07493 10.5032 6.96473 12.7117 6.96473 12.7117C6.01471 11.7446 5.97662 10.7103 6.25582 9.86491C5.75506 10.6771 5.4356 11.6612 5.48711 12.8756C5.55923 14.6156 6.53915 16.1204 7.56857 17.3298C8.06632 17.9158 8.17862 18.6375 8.17862 18.6375C8.17862 18.6375 7.97658 18.0012 7.40376 17.3468Z" fill="white"/>
<path d="M12.5068 8.51218C12.5521 8.55938 12.5964 8.61073 12.6388 8.66193C12.649 8.67403 12.6583 8.68508 12.6685 8.69918C12.7078 8.75038 12.7479 8.80473 12.7861 8.85998C12.7943 8.87103 12.8026 8.88413 12.8118 8.89713C12.8582 8.96553 12.9015 9.03593 12.9447 9.10833C13.3414 9.77673 13.9773 10.1758 14.5409 10.1768C15.1055 10.1758 15.7393 9.77673 16.1381 9.10833C16.1824 9.03388 16.2267 8.96153 16.273 8.89418C16.2802 8.88413 16.2875 8.87508 16.2936 8.86503C16.3328 8.80773 16.374 8.75143 16.4173 8.69713C16.4265 8.68508 16.4348 8.67503 16.443 8.66498C16.4874 8.61168 16.5327 8.55943 16.5791 8.51113C16.5873 8.50313 16.5934 8.49608 16.6007 8.49008C16.8026 8.28803 17.0438 8.13418 17.359 8.04878L17.2189 7.96938H17.2107L16.6522 7.65273L16.0783 7.33203L14.545 8.14628L14.5409 8.14323L14.5378 8.14628L13.0035 7.33203L12.4306 7.65168L11.8711 7.96833H11.8649L11.7227 8.04778C12.039 8.13318 12.2791 8.28498 12.4821 8.48703C12.4913 8.49508 12.4975 8.50413 12.5068 8.51218ZM13.9205 8.44683H14.5697H15.2178V8.88108C15.0654 8.69918 14.7686 8.73638 14.7686 8.73638V9.36263C14.7686 9.36263 14.7799 9.67023 14.8902 9.80388H14.5697H14.2482C14.3605 9.67123 14.3709 9.36263 14.3709 9.36263V8.73638C14.3709 8.73638 14.0751 8.69918 13.9205 8.88108V8.44683Z" fill="white"/>
<path d="M14.4045 7.60284V5.06064L12.7461 4.51172L13.1839 6.97559L14.4045 7.60284ZM14.0481 5.68489V6.09299L13.9678 6.05679C13.9636 6.05379 13.8462 6.02764 13.6402 5.86879C13.3003 5.61149 13.2941 5.37424 13.2941 5.37424L14.0481 5.68489Z" fill="white"/>
<path d="M15.8975 6.97559L16.3332 4.51172L14.6758 5.06064V7.60284L15.8975 6.97559ZM15.0322 5.68489L15.7862 5.37524C15.7862 5.37524 15.7801 5.61249 15.4391 5.86979C15.2341 6.02864 15.1156 6.05474 15.1115 6.05779L15.0311 6.09394V5.68489H15.0322Z" fill="white"/>
<path d="M12.0629 13.4987C12.2246 13.5559 12.4204 13.568 12.5203 13.568C12.5244 13.5559 12.5295 13.5408 12.5347 13.5228C12.5439 13.4936 12.5522 13.4655 12.5584 13.4333C12.5862 13.2926 12.5965 13.1328 12.5986 13.0302C12.5305 12.989 12.4348 12.9156 12.3813 12.806C12.3194 12.6794 12.2319 12.6211 12.1031 12.6211C11.9362 12.6211 11.757 12.7186 11.6807 12.7649C11.62 13.1156 11.8847 13.4343 12.0629 13.4987Z" fill="white"/>
<path d="M15.7328 12.1484C15.4248 12.4751 14.8219 13.0441 14.792 13.0733L14.756 13.1095L12.8508 13.0803C12.8497 13.2643 12.8188 13.4211 12.7889 13.5357C12.7838 13.5548 12.7786 13.5749 12.7734 13.595L15.0404 13.9921C15.2763 13.8312 15.9255 13.3688 16.177 13.1879C15.9935 12.9265 15.976 12.6169 16.0172 12.3988C15.8977 12.3234 15.806 12.2389 15.7328 12.1484Z" fill="white"/>
<path d="M15.9927 9.91711C15.5537 10.3423 15.1323 10.4991 14.7562 10.5353C14.6881 10.5424 14.6191 10.5463 14.5491 10.5463H14.5439H14.5397C14.4697 10.5463 14.3996 10.5424 14.3316 10.5353C14.2657 10.5293 14.1967 10.5192 14.1276 10.5042C14.1028 10.5996 14.0719 10.7997 14.1606 10.9887C14.2399 11.1606 14.4017 11.2882 14.6377 11.3727L14.717 11.4028L14.718 11.4863C14.718 11.5114 14.7366 12.0522 15.3414 12.202C15.4403 12.1025 15.53 12.013 15.596 11.9386C15.4723 11.6551 15.5372 11.3656 15.7165 11.2239C15.7083 11.254 15.63 11.9638 16.2132 12.2271L16.309 12.2714L16.2801 12.3709C16.2708 12.401 16.0761 13.0876 16.782 13.3429L16.9066 13.3892L16.851 13.5078C16.8387 13.5339 16.5615 14.1572 17.2138 14.511H18.6285V13.4153C18.1257 13.355 17.9123 12.961 17.8577 12.6815C17.6239 12.6423 17.4425 12.5438 17.3188 12.3829C17.022 12.0019 17.2776 11.6531 17.2807 11.634C17.2797 11.6371 17.2807 12.009 17.5156 12.2382C17.6321 12.3487 17.7702 12.4342 17.9793 12.4533L18.0823 12.4624L18.0917 12.5649C18.0936 12.587 18.1504 13.0896 18.6295 13.169L18.6285 10.9314C18.6285 10.5846 18.7326 10.2358 18.8573 9.91406H15.9927V9.91711Z" fill="white"/>
<path d="M12.1826 10.9393L12.1445 12.3648L12.3103 12.3889L12.7162 11.0218L12.5102 10.6016L12.1826 10.9393Z" fill="white"/>
<path d="M16.6582 17.4743C16.6706 17.4743 16.685 17.4763 16.6984 17.4793C16.9509 17.5497 17.0148 18.4383 17.4579 18.5177C17.5012 18.5268 17.5413 18.5288 17.5764 18.5288C17.7042 18.5288 17.7804 18.4755 17.8628 18.381C17.8628 18.381 17.6402 18.0392 17.4733 17.8091C17.2518 17.5075 17.0797 17.1425 16.6676 17.1425C16.6582 17.1425 16.6459 17.1425 16.6356 17.1436C16.4996 17.1506 16.4161 17.2149 16.4161 17.2149C16.2492 17.1124 16.0936 17.0772 15.9524 17.0772C15.6938 17.0772 15.4929 17.1929 15.3929 17.1929H15.3888L14.4675 17.1044C14.3233 17.0913 14.21 16.9496 14.1688 16.8943C14.1584 16.8792 14.1533 16.8702 14.1533 16.8702C14.1533 16.846 14.1533 16.8209 14.1513 16.7988C14.1204 16.064 13.5371 15.7493 13.33 15.7443C13.33 15.7443 13.3547 15.6046 13.2981 15.5513L13.0951 15.7915L12.4284 15.4648L12.9034 16.0067L12.5005 16.4479C12.45 16.4983 12.4562 16.5666 12.4768 16.5947L12.6509 16.7445L12.8715 16.6138C12.8828 16.6058 12.9024 16.6038 12.9271 16.6038C12.9879 16.6038 13.0796 16.6188 13.162 16.6188C13.2517 16.6188 13.33 16.5997 13.3393 16.5173C13.3115 16.7897 13.0528 17.2632 13.2228 17.6351L13.3486 17.9156L12.5345 17.801L12.1532 18.4293C12.0358 18.6384 12.0173 18.8645 12.1306 18.9872L12.2727 19.1611C12.2727 19.1611 12.4727 18.954 12.518 18.8183L12.4531 18.7489C12.3985 18.6906 12.4016 18.6384 12.4346 18.5751L12.6736 18.188L13.635 18.4092L13.6855 18.3247C13.7504 18.2192 13.8442 18.187 13.9472 18.187C13.9895 18.187 14.0328 18.192 14.0781 18.1991C14.2564 18.2333 14.5501 18.2795 14.8437 18.2795C15.1662 18.2795 15.4857 18.2232 15.6556 18.0373C16.0039 18.5409 16.7098 18.6213 16.6541 18.8766L16.4687 19.7391C16.5913 19.7341 16.7098 19.726 16.8221 19.7109L16.9983 18.8132C17.0179 18.7157 17.0364 18.584 17.0364 18.584C16.9684 18.5167 16.8035 18.374 16.7109 18.2011C16.5861 17.9678 16.6541 17.8462 16.5377 17.5426C16.5418 17.5447 16.5769 17.4743 16.6582 17.4743ZM13.0621 16.2137C13.0147 16.2127 12.9807 16.1735 12.9827 16.1273C12.9869 16.0831 13.025 16.0479 13.0713 16.0519C13.1187 16.0539 13.1528 16.0941 13.1507 16.1384C13.1466 16.1826 13.1074 16.2168 13.0621 16.2137Z" fill="white"/>
<path d="M11.7516 18.2884C11.7516 18.2884 12.0698 18.1608 12.0986 18.0693L12.0564 17.9658C12.0265 17.8984 12.0307 17.825 12.0884 17.7848L12.4324 17.5526L13.0072 17.6602C13.0072 17.6602 12.9031 17.5335 12.9135 17.3636L12.3655 17.25L11.8483 17.5576C11.6269 17.7195 11.6104 17.9838 11.6835 18.1406L11.7516 18.2884Z" fill="white"/>
<path d="M15.8125 19.7541C15.9155 19.7501 16.0288 19.7481 16.1535 19.7481C16.1535 19.7481 16.4491 18.9047 16.4655 18.8776C16.2997 18.8062 15.9557 18.6282 15.8228 18.5469C15.9104 18.6745 16.1236 18.8213 16.0814 18.9339L15.8125 19.7541Z" fill="white"/>
<path d="M18.6314 14.75H10.457V17.7496C10.457 18.976 11.367 19.7441 12.7096 19.7441C13.8317 19.7441 14.1274 19.7862 14.5448 20.1904C14.8323 19.9109 15.0703 19.8063 15.5587 19.7671L15.57 19.7209L15.8276 18.9439C15.8132 18.9268 15.3918 18.4594 15.3918 18.4594C15.2248 18.5137 15.0847 18.5227 14.8488 18.5227C14.6066 18.5227 14.3335 18.4955 14.0378 18.4413C14.0079 18.4343 13.9801 18.4322 13.9522 18.4322C13.9162 18.4322 13.9131 18.4352 13.9038 18.4523L13.8523 18.5347L13.7585 18.6855L13.5824 18.6463L12.7982 18.4664L12.691 18.6393L12.7075 18.6574L12.8033 18.7599L12.7611 18.8936C12.7033 19.0685 12.5158 19.2726 12.4592 19.3289L12.2633 19.534L12.0851 19.3138L11.9512 19.15C11.81 18.9962 11.7771 18.7599 11.8564 18.5127C11.8543 18.5146 11.8512 18.5156 11.8482 18.5156L11.6266 18.6051L11.5266 18.394L11.4566 18.2443C11.336 17.9809 11.3803 17.5959 11.7049 17.3636L12.3366 17.0158L12.9373 17.1315C12.9517 17.0751 12.9733 16.8741 12.9908 16.8228C12.9795 16.8219 12.9682 16.8188 12.9568 16.8188L12.6106 16.9445L12.2767 16.7193C12.2767 16.7193 12.1459 16.5966 12.2644 16.474L12.5879 15.9965L11.7688 14.9933L13.0279 15.498L13.1115 15.3964L13.2814 15.1984L13.4741 15.3773C13.5287 15.4286 13.5596 15.4919 13.5751 15.5552C13.9223 15.6869 14.5437 16.076 14.5983 16.7082L14.4036 16.7846V16.7896C14.4479 16.8409 14.485 16.8621 14.4963 16.864L15.3948 16.9505C15.4175 16.9465 15.4464 16.9364 15.4783 16.9274C15.5896 16.8902 15.7576 16.8369 15.9564 16.8369C16.1182 16.8369 16.2748 16.8731 16.4252 16.9415C16.4809 16.9214 16.5489 16.9063 16.6273 16.9013L16.6705 16.9003C17.1517 16.9003 17.3907 17.251 17.5825 17.5306C17.6144 17.5787 17.6463 17.625 17.6793 17.6702C17.8472 17.9015 18.0667 18.2402 18.076 18.2543L18.1749 18.4051L18.0533 18.5428C17.9596 18.6483 17.8194 18.772 17.5783 18.772C17.5289 18.772 17.4743 18.767 17.4155 18.7559C17.364 18.7469 17.3176 18.7317 17.2723 18.7137C17.2651 18.7599 17.2558 18.8152 17.2465 18.8624L17.0889 19.6646C18.0317 19.4385 18.6304 18.7438 18.6304 17.7507L18.6314 14.75Z" fill="#FFDD2D"/>
<path d="M10.4532 14.513H16.8099C16.4925 14.1934 16.4967 13.7883 16.5781 13.5249C16.4853 13.4816 16.4091 13.4293 16.3411 13.3731C16.0927 13.552 15.3343 14.0908 15.1365 14.2255L15.0943 14.2537L12.5996 13.8134H12.5491C12.4894 13.8134 12.4018 13.8113 12.3059 13.8003C12.2791 13.9099 12.1823 13.9853 12.071 13.9853C12.0586 13.9853 12.0442 13.9843 12.0308 13.9812C11.9659 13.9702 11.9093 13.938 11.8711 13.8847C11.832 13.8325 11.8165 13.7701 11.8278 13.7058L11.8371 13.6535C11.5795 13.4766 11.3425 13.0815 11.4476 12.6654L11.4579 12.6212L11.494 12.596C11.4991 12.592 11.5424 12.5639 11.6063 12.5277L11.4249 12.5005C11.3569 12.4885 11.3116 12.4271 11.3219 12.3618C11.3332 12.2955 11.3971 12.2482 11.4641 12.2613L11.8958 12.3276L11.935 10.8439L12.578 10.1804L12.9788 11.0038L12.5553 12.4312L12.9366 12.4895C13.0035 12.4995 13.0499 12.5608 13.0396 12.6282C13.0293 12.6875 12.9778 12.7287 12.917 12.7287C12.9108 12.7287 12.9036 12.7287 12.8974 12.7277L12.5872 12.6785C12.5914 12.6875 12.5975 12.6925 12.6017 12.7025C12.6346 12.7689 12.7078 12.8172 12.7511 12.8373L14.6533 12.8664C14.7336 12.79 14.9336 12.599 15.1386 12.397C14.6708 12.2241 14.5007 11.83 14.4719 11.5686C14.2102 11.4601 14.0298 11.2973 13.9299 11.0851C13.8083 10.8228 13.8516 10.5604 13.8835 10.4328C13.63 10.3423 13.3632 10.1775 13.0911 9.91406H10.2266C10.3492 10.2357 10.4532 10.5846 10.4532 10.9314V14.513Z" fill="#FFDD2D"/>
<path d="M13.0733 16.055C13.0268 16.0509 12.9877 16.0862 12.9846 16.1305C12.9815 16.1768 13.0165 16.216 13.064 16.217C13.1094 16.2211 13.1497 16.1868 13.1537 16.1416C13.1537 16.0972 13.1208 16.056 13.0733 16.055Z" fill="black"/>
<path d="M18.6176 21.4923L18.1467 21.3164L18.2765 20.8419L18.4197 20.3242C18.4197 20.3242 17.5851 20.7656 16.4094 21.0973C16.0755 21.1908 15.8231 21.233 15.8231 21.233V21.5848C15.8231 21.5848 15.1945 21.6914 14.5588 21.6914H14.5515H14.5423H14.5299H14.5227C13.8869 21.6914 13.2583 21.5848 13.2583 21.5848V21.233C13.2583 21.233 13.0048 21.1908 12.672 21.0973C11.4963 20.7656 10.6627 20.3242 10.6627 20.3242L10.8038 20.8419L10.9368 21.3164L10.4648 21.4923L9.94141 21.6833C10.5421 21.9658 11.3736 22.378 12.1352 22.581L11.9559 23.0595C11.9559 23.0595 12.9214 23.4887 14.5299 23.4928V23.4938H14.5351H14.5423H14.5485H14.5525V23.4928C16.1631 23.4887 17.1276 23.0595 17.1276 23.0595L16.9472 22.581C17.7087 22.378 18.5424 21.9658 19.14 21.6833L18.6176 21.4923ZM10.4999 21.7155L11.2747 21.4642L11.046 20.7354C11.387 20.9244 12.1527 21.2078 12.5957 21.3395L12.2217 22.3417C11.5375 22.1578 10.9677 21.9437 10.4999 21.7155ZM14.5423 23.2414C13.6427 23.2414 12.6153 23.0394 12.3135 22.9349L12.773 21.7215C13.1542 21.8301 13.9477 21.9457 14.5237 21.9416H14.5247H14.5423H14.5577H14.5598C15.1358 21.9457 15.9271 21.8301 16.3105 21.7215L16.769 22.9349C16.4671 23.0404 15.4408 23.2414 14.5423 23.2414ZM16.8607 22.3417L16.4877 21.3395C16.9318 21.2078 17.6953 20.9244 18.0374 20.7354L17.8097 21.4642L18.5836 21.7155C18.1147 21.9437 17.548 22.1578 16.8607 22.3417Z" fill="black"/>
<path d="M14.5416 2.54949C15.4999 2.54949 16.2665 2.85914 16.6901 3.18988C16.6901 3.18988 16.8158 2.45099 17.2455 1.79863L16.4736 1.88404L16.0698 1.0467L15.2938 1.43675L14.5416 0.710938L13.7915 1.43675L13.0146 1.0467L12.6117 1.88404L11.8398 1.79863C12.2695 2.45099 12.3952 3.18988 12.3952 3.18988C12.8198 2.85914 13.5843 2.54949 14.5416 2.54949ZM12.5766 2.17756L12.7909 2.19971L12.8837 2.00971L13.1536 1.44679L13.6544 1.69906L13.8482 1.79558L14.0027 1.64684L14.5426 1.12412L15.0836 1.64684L15.2382 1.79558L15.4319 1.69906L15.9297 1.44679L16.2027 2.00971L16.2934 2.19971L16.5077 2.17756L16.7117 2.15343C16.6179 2.35956 16.5489 2.55451 16.4994 2.71641C15.9594 2.42289 15.2567 2.25597 14.5406 2.25597C13.8276 2.25597 13.1258 2.42289 12.5838 2.71641C12.5334 2.55451 12.4653 2.3585 12.3715 2.15343L12.5766 2.17756Z" fill="black"/>
<path d="M25.788 12.3583C27.0276 12.3583 27.4418 11.1279 27.4593 11.0756L27.5974 10.6423L27.1327 10.6564H27.1307C26.9668 10.6564 25.5994 10.6212 24.6298 9.41895L24.5381 9.3074C23.9044 8.5213 23.3037 7.77441 22.2299 7.4336C22.2608 7.40651 22.3052 7.37231 22.366 7.33411C22.9358 6.96821 23.2675 6.52385 23.351 6.00821C23.4726 5.23216 22.9657 4.61393 22.943 4.5888L22.5978 4.17265L22.3825 4.66622C22.3681 4.69736 22.0053 5.4875 21.2428 5.4875H21.1861C21.1336 5.48446 21.0841 5.48246 21.0346 5.4784C21.0615 5.1256 20.9955 4.57974 20.4885 4.06806C19.8795 3.45186 19.1314 3.35938 18.7399 3.35938C18.5307 3.35938 18.3916 3.3845 18.3772 3.38655L17.8558 3.48703L18.1773 3.90022C18.4298 4.21886 18.6585 4.80696 18.3874 5.11456C18.3009 5.21205 18.1227 5.29146 17.9516 5.37086C17.6003 5.52866 17.1211 5.74781 17.1211 6.30676C17.1211 6.66866 17.4086 7.04661 17.93 7.36826C19.4736 8.31521 20.4256 9.30335 20.8368 10.394C21.4726 12.0718 20.6431 13.0288 19.8373 13.5324L19.4756 13.7596L19.792 14.043C19.8342 14.0793 20.2217 14.412 20.7935 14.4603C20.9017 14.4673 21.0058 14.4733 21.1027 14.4733C21.4695 14.4733 21.7817 14.417 22.0352 14.3416C21.9651 14.4612 21.8796 14.5829 21.7714 14.7055C21.3108 15.2262 20.7441 15.4635 19.929 15.4755L19.626 15.4806L19.6023 15.7771C19.5992 15.8364 19.5766 16.3863 20.1103 16.8537C20.1918 16.926 20.2907 16.9854 20.3937 17.0347C20.0321 17.3523 19.6641 17.9052 19.5931 18.8531C19.5333 19.6442 19.3396 19.9368 19.3376 19.9397L19.0027 20.4383L19.6075 20.4464C20.6071 20.4464 21.3726 20.177 21.9033 19.6442C22.2165 19.3286 22.3959 18.9727 22.502 18.6571C22.6761 18.8018 22.9008 18.9285 23.1933 18.9958C23.3047 19.021 23.4263 19.035 23.5571 19.035C23.8395 19.035 24.0755 18.9767 24.1023 18.9707L24.4886 18.8702L24.3176 18.5183C24.3052 18.4902 23.9827 17.7845 24.3299 16.7773C24.4793 16.342 24.5556 15.952 24.5927 15.6484C24.8359 15.772 25.1615 15.8746 25.5829 15.8756C26.5392 15.8756 26.9606 15.179 26.9802 15.1498L27.1688 14.8301L26.8195 14.6894C25.6798 14.228 25.4274 12.9885 25.3769 12.3171C25.4799 12.3362 25.5974 12.3543 25.7303 12.3583H25.788ZM26.6916 14.9859C26.6916 14.9859 26.3578 15.5519 25.5922 15.5519H25.5829C24.6638 15.5469 24.2928 15 24.2928 15C24.2928 15 24.3464 15.7118 24.0147 16.6717C23.6159 17.8288 24.0177 18.6561 24.0177 18.6561C24.0177 18.6561 23.8034 18.7124 23.5561 18.7124C23.4613 18.7124 23.3624 18.7033 23.2696 18.6792C22.502 18.5013 22.3104 17.8197 22.3104 17.8197C22.3104 17.8197 22.3814 20.1227 19.6291 20.1227H19.6075C19.6075 20.1227 19.8497 19.801 19.9218 18.8752C20.0526 17.1663 21.2387 16.9321 21.2387 16.9321C21.2387 16.9321 20.6059 16.8547 20.3319 16.6145C19.9032 16.2355 19.9331 15.7972 19.9331 15.7972C20.9017 15.7841 21.5354 15.4625 22.0187 14.9166C22.5422 14.3255 22.6287 13.6892 22.6287 13.6892C22.6287 13.6892 22.1083 14.1496 21.1017 14.1496C21.013 14.1496 20.9182 14.1456 20.8213 14.1365C20.3453 14.0994 20.0156 13.8038 20.0156 13.8038C21.0635 13.1484 21.7992 12.0044 21.147 10.2814C20.6245 8.90126 19.3695 7.8699 18.1062 7.09285C17.6858 6.8365 17.4518 6.55206 17.4518 6.30676C17.4518 5.72976 18.2927 5.71165 18.6379 5.3236C19.0356 4.87327 18.7862 4.1425 18.4411 3.70321C18.4411 3.70321 18.5575 3.68007 18.7409 3.68007C19.1047 3.68007 19.7343 3.76952 20.2515 4.29224C20.9388 4.98585 20.6534 5.74081 20.6534 5.74081L20.8378 5.77601C20.9481 5.79911 21.0573 5.80316 21.1707 5.80816C21.1954 5.80816 21.2201 5.80915 21.2448 5.80915C22.2433 5.80915 22.6895 4.79083 22.6895 4.79083C22.6895 4.79083 23.7509 6.06451 22.1887 7.06166C21.9198 7.23256 21.8012 7.39036 21.8322 7.55926L21.857 7.66986L21.9682 7.68896C23.1006 7.98851 23.6736 8.75051 24.3732 9.61696C25.4356 10.9349 26.939 10.9771 27.1244 10.9771H27.1441C27.1441 10.9771 26.8009 12.0336 25.7901 12.0336C25.7736 12.0336 25.7591 12.0336 25.7416 12.0326C25.2769 12.0165 25.0389 11.8426 25.0389 11.8426C25.0389 11.8426 24.8565 14.2421 26.6916 14.9859Z" fill="black"/>
<path d="M23.605 7.56764C24.0676 7.80784 24.3366 8.12954 24.5725 8.41499C24.8044 8.69344 25.0249 8.96184 25.369 9.07344C25.4916 9.11469 25.6215 9.13379 25.7534 9.13379C26.2706 9.13379 26.79 8.82514 26.9868 8.39794L27.1846 7.96969L26.7055 7.94154C26.6828 7.94054 26.0667 7.88624 25.3804 7.20169C25.0981 6.92129 24.757 6.77344 24.3891 6.77344C23.9399 6.77344 23.607 6.99259 23.5699 7.01474L23.1289 7.31734L23.605 7.56764ZM24.3902 7.09719C24.6209 7.09719 24.8899 7.17354 25.1444 7.42989C25.9429 8.22104 26.6859 8.26524 26.6859 8.26524C26.551 8.55674 26.1594 8.81309 25.7544 8.81309C25.6607 8.81309 25.5669 8.79904 25.4731 8.76789C24.9239 8.58694 24.7271 7.78274 23.7616 7.28209C23.7616 7.28209 24.0316 7.09719 24.3902 7.09719Z" fill="black"/>
<path d="M23.8232 11.8357V11.8519C23.5451 9.66249 21.9149 8.08124 20.1014 7.11924C19.9334 7.03174 19.7789 6.95739 19.6284 6.88599C20.1807 6.96944 21.07 6.97949 21.7562 6.39844C21.7562 6.39844 20.7062 7.15239 18.5547 6.46784C19.1503 6.84479 20.3075 7.37659 21.3636 8.23804C24.0047 10.5018 22.1148 12.7103 22.1148 12.7103C23.0639 11.7443 23.103 10.7089 22.8238 9.86354C23.3235 10.6747 23.6429 11.6598 23.5934 12.8742C23.5204 14.6142 22.5404 16.1191 21.5089 17.3284C21.0133 17.9154 20.902 18.6362 20.902 18.6362C20.902 18.6362 21.1019 17.9999 21.6758 17.3454C22.7815 16.0829 23.7264 14.771 23.85 12.8812C23.9644 13.224 24.4353 14.178 25.1824 14.5368C25.1844 14.5378 24.2457 13.986 23.8232 11.8357Z" fill="black"/>
<path d="M9.74729 19.9358C9.74627 19.9328 9.55462 19.6403 9.49284 18.8491C9.42072 17.9012 9.05381 17.3483 8.69113 17.0307C8.79625 16.9824 8.89307 16.9231 8.97451 16.8498C9.50725 16.3823 9.48453 15.8324 9.48143 15.7731L9.46085 15.4766L9.15583 15.4715C8.34287 15.4585 7.77504 15.2213 7.31447 14.7015C7.20731 14.5789 7.12078 14.4572 7.05069 14.3376C7.30413 14.413 7.6143 14.4693 7.98217 14.4693C8.08113 14.4693 8.18315 14.4633 8.29132 14.4563C8.86318 14.408 9.25066 14.0762 9.2939 14.0391L9.61023 13.7556L9.24857 13.5284C8.43969 13.0238 7.61328 12.0668 8.24803 10.3901C8.65915 9.2994 9.61023 8.31125 11.1559 7.3643C11.6773 7.0426 11.9627 6.6647 11.9627 6.3028C11.9627 5.7439 11.4846 5.52375 11.1332 5.3669C10.9621 5.2875 10.7839 5.2081 10.6974 5.1106C10.4253 4.80398 10.6551 4.21495 10.9065 3.89624L11.2301 3.48312L10.7066 3.38257C10.6912 3.38059 10.5541 3.35547 10.3439 3.35547C9.95234 3.35547 9.20635 3.44795 8.5963 4.06415C8.08831 4.57683 8.02139 5.12265 8.04711 5.47445C7.99765 5.4785 7.9482 5.48055 7.89666 5.4835H7.84104C7.07647 5.4835 6.7148 4.69344 6.70039 4.66224L6.48495 4.16867L6.13669 4.58483C6.11713 4.61002 5.60812 5.2292 5.73176 6.00425C5.81418 6.5199 6.14596 6.9642 6.71577 7.33015C6.7776 7.36835 6.82089 7.4025 6.85181 7.4297C5.77917 7.7704 5.17944 8.51835 4.5457 9.3044L4.45399 9.416C3.48544 10.6182 2.11494 10.6535 1.95111 10.6535L1.48438 10.6394L1.62653 11.0726C1.64303 11.1249 2.05622 12.3553 3.29682 12.3553L3.35662 12.3533C3.48746 12.3493 3.60497 12.3322 3.71008 12.3121C3.6585 12.9825 3.40605 14.222 2.26538 14.6845L1.91709 14.8252L2.10572 15.1448C2.12424 15.174 2.54672 15.8707 3.50497 15.8707C3.92335 15.8696 4.24893 15.767 4.49318 15.6434C4.53028 15.947 4.60651 16.3371 4.75594 16.7723C5.10321 17.7796 4.77964 18.4852 4.76725 18.5134L4.59621 18.8653L4.98368 18.9658C5.00941 18.9718 5.24745 19.03 5.52873 19.03C5.66065 19.03 5.78226 19.016 5.89151 18.9908C6.18517 18.9235 6.41182 18.7969 6.58386 18.6521C6.68898 18.9677 6.86933 19.3236 7.18159 19.6392C7.7132 20.172 8.47778 20.4414 9.4773 20.4414L10.0832 20.4334L9.74729 19.9358ZM9.45464 20.1197C6.70238 20.1197 6.77251 17.8167 6.77251 17.8167C6.77251 17.8167 6.58086 18.4983 5.81317 18.6762C5.72145 18.7003 5.62354 18.7094 5.52772 18.7094C5.28045 18.7094 5.06712 18.6531 5.06712 18.6531C5.06712 18.6531 5.46691 17.8258 5.06812 16.6688C4.73843 15.7087 4.79203 14.9971 4.79203 14.9971C4.79203 14.9971 4.42207 15.5439 3.50194 15.5489H3.49265C2.72706 15.5489 2.39319 14.983 2.39319 14.983C4.22732 14.2401 4.04698 11.8417 4.04698 11.8417C4.04698 11.8417 3.80901 12.0145 3.34322 12.0316C3.32672 12.0326 3.3113 12.0326 3.2948 12.0326C2.28289 12.0326 1.9408 10.9761 1.9408 10.9761H1.9614C2.14794 10.9761 3.64928 10.9339 4.71163 9.61605C5.41129 8.74955 5.98522 7.98855 7.11558 7.68805L7.2289 7.66895L7.25371 7.55835C7.28462 7.38945 7.16712 7.23165 6.89821 7.06075C5.33607 6.06255 6.3974 4.7899 6.3974 4.7899C6.3974 4.7899 6.84152 5.80725 7.84206 5.80725C7.86676 5.80725 7.88948 5.8062 7.9152 5.8062C8.0275 5.80015 8.13884 5.79615 8.24803 5.77305L8.4325 5.73785C8.4325 5.73785 8.14704 4.98293 8.83537 4.28932C9.35267 3.76561 9.98223 3.67715 10.3449 3.67715C10.5294 3.67715 10.6438 3.70023 10.6438 3.70023C10.2996 4.14051 10.0503 4.87035 10.4479 5.3207C10.7921 5.7077 11.6319 5.7268 11.6319 6.3038C11.6319 6.54805 11.3981 6.8336 10.9777 7.0899C9.71327 7.86695 8.45827 8.8983 7.93684 10.2785C7.28564 12.0015 8.02032 13.1444 9.07031 13.8008C9.07031 13.8008 8.74059 14.0963 8.26351 14.1336C8.16664 14.1426 8.07288 14.1466 7.98217 14.1466C6.97649 14.1466 6.45613 13.6862 6.45613 13.6862C6.45613 13.6862 6.54266 14.3226 7.06307 14.9136C7.54941 15.4594 8.18315 15.7811 9.15175 15.7942C9.15175 15.7942 9.18267 16.2325 8.75398 16.6114C8.4789 16.8507 7.84613 16.9291 7.84613 16.9291C7.84613 16.9291 9.03324 17.1633 9.16306 18.8722C9.23416 19.798 9.47425 20.1197 9.47425 20.1197H9.45464Z" fill="black"/>
<path d="M3.32765 9.13664C3.46058 9.13664 3.59041 9.11749 3.71297 9.07624C4.05923 8.96469 4.27869 8.69629 4.51054 8.41784C4.74758 8.13234 5.01445 7.81069 5.47707 7.57044L5.95317 7.32114L5.51107 7.01854C5.47397 6.99544 5.14219 6.77734 4.69397 6.77734C4.32509 6.77734 3.983 6.92409 3.70166 7.20549C3.0154 7.88909 2.40025 7.94434 2.37756 7.94539L1.89844 7.97249L2.09527 8.40174C2.29305 8.82694 2.81136 9.13664 3.32765 9.13664ZM3.93762 7.43274C4.19317 7.17634 4.46212 7.09999 4.69397 7.09999C5.05047 7.09999 5.32043 7.28489 5.32043 7.28489C4.356 7.78654 4.15815 8.58979 3.60685 8.77069C3.5162 8.80184 3.42139 8.81594 3.32765 8.81594C2.92267 8.81594 2.53109 8.56059 2.39715 8.26809C2.39715 8.26709 3.13903 8.22279 3.93762 7.43274Z" fill="black"/>
<path d="M5.4923 12.8781C5.44079 11.6637 5.76025 10.6786 6.26099 9.86739C5.98174 10.7128 6.01989 11.7482 6.96995 12.7142C6.96995 12.7142 5.08012 10.5057 7.7221 8.24194C8.77938 7.38044 9.93551 6.84864 10.5301 6.47169C8.37957 7.15624 7.32953 6.40234 7.32953 6.40234C8.01577 6.98339 8.90508 6.97334 9.45742 6.88894C9.30799 6.96024 9.15133 7.03464 8.98539 7.12209C7.16986 8.08409 5.54072 9.66534 5.26146 11.8547V11.8377C4.84005 13.9879 3.90234 14.5397 3.90234 14.5397C4.6484 14.1808 5.1183 13.2279 5.23264 12.8841C5.35736 14.774 6.3022 16.0858 7.40786 17.3484C7.9818 18.0027 8.18379 18.6391 8.18379 18.6391C8.18379 18.6391 8.07149 17.9183 7.57379 17.3312C6.54437 16.124 5.56443 14.6181 5.4923 12.8781Z" fill="black"/>
<path d="M13.9219 8.44922V8.88347C14.0754 8.70152 14.3721 8.73877 14.3721 8.73877V9.36502C14.3721 9.36502 14.3617 9.67262 14.2495 9.80627H14.5708H14.8912C14.781 9.67362 14.7696 9.36502 14.7696 9.36502V8.73877C14.7696 8.73877 15.0663 8.70152 15.2188 8.88347V8.44922H14.5708H13.9219Z" fill="black"/>
<path d="M13.6429 5.87346C13.8479 6.03236 13.9664 6.05846 13.9705 6.06151L14.0509 6.09766V5.68851L13.2969 5.37891C13.2969 5.37991 13.3041 5.61611 13.6429 5.87346Z" fill="black"/>
<path d="M15.4381 5.87346C15.7791 5.61611 15.7852 5.37891 15.7852 5.37891L15.0312 5.68851V6.09766L15.1105 6.06151C15.1157 6.05846 15.2331 6.03236 15.4381 5.87346Z" fill="black"/>
<path d="M16.7979 4.20547C16.7979 3.58524 15.7273 3.02734 14.5454 3.02734H14.5444H14.5413H14.5382C13.3563 3.02734 12.2857 3.58524 12.2857 4.20547L12.3094 4.35825L12.7813 7.00101L12.3074 7.26941L11.0811 7.96807H11.0853C11.0853 7.96807 10.8091 8.10577 10.6813 8.19122C10.2146 8.50792 10.1157 8.96927 10.3866 9.16027C10.4536 8.78432 10.7586 8.39027 11.3295 8.39027C11.7406 8.39027 12.0539 8.59732 12.3074 8.90797C12.3723 8.98637 12.4341 9.06982 12.4918 9.16027C12.5629 9.27382 12.634 9.37342 12.7051 9.46992H9.54688C9.77871 9.92527 9.99919 10.4078 9.99919 10.9315V17.751C9.99919 19.4016 11.3006 20.1897 12.7082 20.1897C13.7963 20.1897 13.9427 20.1415 14.5434 20.7245C15.141 20.1405 15.2874 20.1897 16.3765 20.1897C17.7851 20.1897 19.0845 19.4016 19.0845 17.751V10.9315C19.0845 10.4078 19.305 9.92527 19.5379 9.46992H16.3786C16.4486 9.37437 16.5197 9.27382 16.5908 9.16027C16.6496 9.06982 16.7103 8.98637 16.7742 8.90797C17.0298 8.59637 17.342 8.39027 17.7531 8.39027C18.324 8.39027 18.628 8.78332 18.696 9.16027C18.967 8.96927 18.8691 8.50792 18.3992 8.19122C18.2735 8.10577 17.9973 7.96807 17.9973 7.96807H18.0015L16.7753 7.26941L16.3033 7.00101L16.7753 4.35825L16.7979 4.20547ZM12.7504 4.51307L14.4094 5.06191V7.60417L13.1884 6.97591L12.7504 4.51307ZM13.0936 9.91317C13.3656 10.1775 13.6325 10.3414 13.8859 10.4319C13.8529 10.5596 13.8097 10.823 13.9323 11.0853C14.0323 11.2964 14.2136 11.4593 14.4743 11.5678C14.5032 11.8292 14.6722 12.2222 15.141 12.3962C14.936 12.5982 14.736 12.7882 14.6546 12.8656L12.7535 12.8364C12.7102 12.8153 12.6371 12.7681 12.6042 12.7007C12.6 12.6917 12.5938 12.6866 12.5908 12.6766L12.9008 12.7258C12.9081 12.7268 12.9142 12.7268 12.9204 12.7268C12.9802 12.7268 13.0327 12.6866 13.0431 12.6263C13.0534 12.559 13.007 12.4976 12.9401 12.4876L12.5588 12.4293L12.9823 11.0028L12.5814 10.1796L11.9385 10.8431L11.8993 12.3267L11.4676 12.2604C11.4006 12.2473 11.3367 12.2956 11.3254 12.3609C11.315 12.4263 11.3604 12.4876 11.4284 12.4997L11.6097 12.5268C11.5448 12.563 11.5026 12.5911 11.4974 12.5951L11.4603 12.6203L11.45 12.6646C11.3449 13.0807 11.5829 13.4758 11.8396 13.6527L11.8303 13.7049C11.82 13.7693 11.8344 13.8316 11.8736 13.8839C11.9106 13.9372 11.9683 13.9693 12.0322 13.9804C12.0457 13.9824 12.06 13.9834 12.0724 13.9834C12.1837 13.9834 12.2806 13.908 12.3084 13.7985C12.4042 13.8095 12.4918 13.8115 12.5515 13.8115H12.6021L15.0967 14.2508L15.1389 14.2237C15.3378 14.0879 16.0952 13.5492 16.3435 13.3712C16.4115 13.4285 16.4877 13.4808 16.5805 13.524C16.5001 13.7873 16.495 14.1925 16.8134 14.5122H10.4557V10.9325C10.4557 10.5857 10.3516 10.2369 10.229 9.91522H13.0936V9.91317ZM16.1766 13.1883C15.9241 13.3692 15.275 13.8316 15.04 13.9924L12.7731 13.5954C12.7783 13.5753 12.7834 13.5562 12.7886 13.5361C12.8184 13.4214 12.8483 13.2646 12.8504 13.0807L14.7556 13.1109L14.7917 13.0746C14.8206 13.0465 15.4244 12.4775 15.7325 12.1498C15.8056 12.2393 15.8973 12.3248 16.0168 12.4001C15.9756 12.6173 15.9932 12.9269 16.1766 13.1883ZM12.3815 12.8052C12.4351 12.9148 12.5319 12.9882 12.599 13.0294C12.5969 13.1319 12.5866 13.2918 12.5588 13.4325C12.5526 13.4637 12.5444 13.4928 12.535 13.522C12.53 13.5401 12.5248 13.5552 12.5206 13.5672C12.4207 13.5672 12.2239 13.5552 12.0631 13.4979C11.8849 13.4335 11.6191 13.1149 11.6808 12.7641C11.7581 12.7178 11.9364 12.6203 12.1034 12.6203C12.2322 12.6193 12.3197 12.6786 12.3815 12.8052ZM12.1456 12.364L12.1837 10.9395L12.5114 10.6008L12.7175 11.021L12.3115 12.3881L12.1456 12.364ZM16.156 19.7484C16.0323 19.7484 15.9179 19.7504 15.8149 19.7545L16.0849 18.9352C16.1272 18.8216 15.9138 18.6758 15.8262 18.5482C15.9591 18.6296 16.3033 18.8075 16.4693 18.8789C16.4517 18.905 16.156 19.7484 16.156 19.7484ZM17.003 18.8176L16.8268 19.7143C16.7145 19.7293 16.595 19.7373 16.4723 19.7424L16.6578 18.8799C16.7134 18.6235 16.0076 18.5441 15.6594 18.0405C15.4893 18.2275 15.1688 18.2828 14.8474 18.2828C14.5537 18.2828 14.26 18.2365 14.0817 18.2024C14.0364 18.1954 13.9931 18.1903 13.9509 18.1903C13.8478 18.1903 13.754 18.2215 13.6891 18.328L13.6376 18.4125L12.6763 18.1913L12.4372 18.5773C12.4032 18.6397 12.4011 18.693 12.4557 18.7512L12.5206 18.8206C12.4763 18.9573 12.2765 19.1634 12.2765 19.1634L12.1333 18.9894C12.0198 18.8658 12.0384 18.6407 12.1569 18.4316L12.5382 17.8033L13.3522 17.9179L13.2255 17.6364C13.0555 17.2645 13.3141 16.791 13.3419 16.5186C13.3326 16.601 13.2553 16.6191 13.1647 16.6191C13.0822 16.6191 12.9905 16.604 12.9297 16.604C12.906 16.604 12.8854 16.606 12.8741 16.6141L12.6536 16.7448L12.4794 16.595C12.4588 16.5658 12.4516 16.4985 12.5031 16.4482L12.906 16.0079L12.43 15.4661L13.0967 15.7928L13.2996 15.5526C13.3553 15.6059 13.3316 15.7456 13.3316 15.7456C13.5398 15.7506 14.1229 16.0653 14.1539 16.7991C14.1559 16.8211 14.1559 16.8463 14.1559 16.8704C14.1559 16.8704 14.1611 16.8795 14.1714 16.8945C14.2126 16.9499 14.3259 17.0916 14.4702 17.1046L15.3914 17.1931H15.3955C15.4965 17.1931 15.6975 17.0775 15.955 17.0775C16.0952 17.0775 16.2518 17.1127 16.4187 17.2152C16.4187 17.2152 16.5022 17.1509 16.6382 17.1438C16.6485 17.1428 16.6599 17.1428 16.6702 17.1428C17.0834 17.1428 17.2544 17.5068 17.476 17.8093C17.6429 18.0395 17.8655 18.3813 17.8655 18.3813C17.783 18.4768 17.7067 18.5291 17.579 18.5291C17.544 18.5291 17.5038 18.526 17.4605 18.518C17.0174 18.4386 16.9536 17.55 16.7011 17.4796C16.6877 17.4756 16.6733 17.4746 16.6609 17.4746C16.5795 17.4746 16.5435 17.545 16.5435 17.545C16.6588 17.8475 16.5919 17.9702 16.7155 18.2034C16.8082 18.3763 16.9731 18.519 17.0411 18.5864C17.0411 18.5884 17.0226 18.7191 17.003 18.8176ZM12.0559 17.9691L12.0982 18.0727C12.0704 18.1632 11.751 18.2918 11.751 18.2918L11.6819 18.145C11.6087 17.9882 11.6241 17.7239 11.8468 17.562L12.364 17.2544L12.9122 17.368C12.9019 17.5379 13.006 17.6646 13.006 17.6646L12.431 17.557L12.0869 17.7892C12.0291 17.8284 12.025 17.9018 12.0559 17.9691ZM17.0896 19.665L17.2472 18.8628C17.2554 18.8156 17.2657 18.7603 17.273 18.714C17.3173 18.7322 17.3647 18.7472 17.4162 18.7563C17.4749 18.7673 17.5295 18.7723 17.579 18.7723C17.8202 18.7723 17.9603 18.6487 18.054 18.5431L18.1757 18.4054L18.0767 18.2547C18.0674 18.2396 17.849 17.9018 17.68 17.6706C17.647 17.6254 17.615 17.5801 17.5831 17.5309C17.3915 17.2514 17.1514 16.9006 16.6702 16.9006L16.6269 16.9016C16.5475 16.9066 16.4795 16.9217 16.425 16.9418C16.2734 16.8724 16.1178 16.8373 15.956 16.8373C15.7572 16.8373 15.5892 16.8906 15.4779 16.9277C15.446 16.9368 15.4172 16.9468 15.3945 16.9509L14.4949 16.8644C14.4836 16.8624 14.4465 16.8413 14.4022 16.789V16.785L14.5969 16.7086C14.5423 16.0763 13.92 15.6873 13.5727 15.5556C13.5573 15.4922 13.5264 15.4289 13.4718 15.3777L13.278 15.1987L13.108 15.3978L13.0245 15.4993L11.7654 14.9946L12.5846 15.9979L12.261 16.4754C12.1425 16.598 12.2734 16.7207 12.2734 16.7207L12.6072 16.9448L12.9534 16.8192C12.9658 16.8192 12.9761 16.8222 12.9874 16.8232C12.971 16.8744 12.9493 17.0755 12.9349 17.1318L12.3341 17.0162L11.7025 17.364C11.3779 17.5962 11.3336 17.9812 11.4542 18.2446L11.5242 18.3943L11.6241 18.6055L11.8447 18.516C11.8478 18.515 11.8509 18.514 11.8529 18.512C11.7736 18.7593 11.8056 18.9945 11.9477 19.1493L12.0817 19.3142L12.26 19.5343L12.4557 19.3292C12.5135 19.2729 12.7 19.0689 12.7577 18.894L12.7999 18.7602L12.7041 18.6577L12.6886 18.6397L12.7958 18.4667L13.5799 18.6467L13.7561 18.6859L13.8499 18.5351L13.9014 18.4526C13.9107 18.4356 13.9137 18.4325 13.9499 18.4325C13.9777 18.4325 14.0055 18.4356 14.0354 18.4416C14.3311 18.4959 14.6041 18.5231 14.8463 18.5231C15.0812 18.5231 15.2213 18.514 15.3893 18.4597C15.3893 18.4597 15.8108 18.9261 15.8252 18.9442L15.5676 19.7203L15.5563 19.7675C15.0678 19.8057 14.8298 19.9103 14.5423 20.1907C14.125 19.7866 13.8293 19.7444 12.7072 19.7444C11.3645 19.7444 10.4547 18.9764 10.4547 17.75V14.7514H18.628L18.6301 17.75C18.631 18.7452 18.0324 19.4388 17.0896 19.665ZM18.8567 9.91317C18.7321 10.2349 18.628 10.5837 18.628 10.9305L18.629 13.1682C18.1498 13.0898 18.0932 12.5861 18.0911 12.564L18.0818 12.4615L17.9788 12.4524C17.7706 12.4333 17.6326 12.3468 17.5161 12.2363C17.2812 12.0071 17.2801 11.6352 17.2812 11.6321C17.2781 11.6512 17.0226 12 17.3194 12.381C17.444 12.5419 17.6243 12.6404 17.8583 12.6796C17.9128 12.9591 18.1261 13.3531 18.629 13.4134V14.5091H17.2152C16.563 14.1553 16.8391 13.532 16.8525 13.5059L16.9082 13.3873L16.7835 13.341C16.0777 13.0857 16.2714 12.3981 16.2817 12.369L16.3105 12.2684L16.2147 12.2242C15.6314 11.9608 15.7108 11.2502 15.7181 11.221C15.5388 11.3627 15.4738 11.6522 15.5975 11.9357C15.5305 12.0101 15.4409 12.1006 15.343 12.1991C14.7391 12.0494 14.7206 11.5075 14.7206 11.4824L14.7195 11.3989L14.6402 11.3688C14.4043 11.2833 14.2425 11.1557 14.1631 10.9837C14.0735 10.7938 14.1054 10.5948 14.1302 10.4992C14.1992 10.5143 14.2682 10.5254 14.3342 10.5304C14.4022 10.5374 14.4723 10.5415 14.5423 10.5415H14.5465H14.5516C14.6217 10.5415 14.6908 10.5374 14.7587 10.5304C15.1348 10.4942 15.5563 10.3364 15.9952 9.91217H18.8567V9.91317ZM16.6537 7.65137L17.2121 7.96807H17.2204L17.3606 8.04747C17.0452 8.13292 16.8041 8.28672 16.6022 8.48877C16.595 8.49482 16.5878 8.50287 16.5805 8.50987C16.5341 8.55812 16.4877 8.61041 16.4445 8.66372C16.4363 8.67377 16.428 8.68482 16.4187 8.69587C16.3754 8.75012 16.3353 8.80547 16.2961 8.86372C16.2899 8.87382 16.2827 8.88387 16.2755 8.89287C16.2291 8.96022 16.1849 9.03262 16.1406 9.10697C15.7428 9.77547 15.108 10.1746 14.5434 10.1756C13.9798 10.1746 13.345 9.77547 12.9472 9.10697C12.9039 9.03457 12.8607 8.96427 12.8143 8.89587C12.805 8.88282 12.7968 8.86977 12.7886 8.85867C12.7494 8.80342 12.7102 8.74912 12.6701 8.69792C12.6598 8.68382 12.6505 8.67272 12.6402 8.66067C12.5969 8.60937 12.5526 8.55812 12.5083 8.51087C12.499 8.50387 12.4928 8.49481 12.4836 8.48676C12.2806 8.28472 12.0405 8.13192 11.7241 8.04747L11.8663 7.96807H11.8725L12.431 7.65137L13.0049 7.33077L14.5382 8.14497L14.5413 8.14197L14.5454 8.14497L16.0787 7.33077L16.6537 7.65137ZM15.8973 6.97686L14.6753 7.60517V5.06191L16.3332 4.51307L15.8973 6.97686ZM14.5423 4.78247L12.7247 4.08184C12.8792 3.72499 13.5923 3.42135 14.5423 3.42036C15.4934 3.42135 16.2065 3.72499 16.36 4.08184L14.5423 4.78247Z" fill="black"/>
<path d="M37.0494 15.4184V11.3933H39.4696V9.92859H32.8672V11.3933H35.2872V15.4184H37.0494ZM41.8783 13.1233V9.92859H40.1748V15.4184H41.6786L44.6155 12.2237V15.4184H46.319V9.92859H44.8152L41.8783 13.1233ZM52.0499 13.377V15.4184H53.7535V9.92859H52.0499V11.9353H49.3125V9.92859H47.6091V15.4184H49.3125V13.377H52.0499ZM58.4972 15.4184C58.8848 15.4184 59.2373 15.3838 59.5663 15.2915C60.4479 15.0494 61.0229 14.3458 61.0229 13.3885C61.0229 12.4774 60.5299 11.8431 59.743 11.5547C59.3661 11.4164 58.9205 11.4048 58.4972 11.4048H56.7467V9.92859H55.0436V15.4184H58.4972ZM58.2034 12.6966C58.4387 12.6966 58.6617 12.6966 58.8614 12.7658C59.1436 12.858 59.3081 13.0887 59.3081 13.3655C59.3081 13.6538 59.1436 13.896 58.8731 14.0113C58.6852 14.0921 58.4972 14.0921 58.2034 14.0921H56.7467V12.6966H58.2034ZM64.0772 13.3424L66.1099 15.4184H68.3768L65.5461 12.5581L68.2714 9.92859H66.1333L64.0772 11.993H63.6077V9.92859H61.9045V15.4184H63.6077V13.3424H64.0772ZM71.8819 9.77869C69.591 9.77869 68.2169 11.0473 68.2169 12.685C68.2169 14.3228 69.591 15.5914 71.8819 15.5914C74.1616 15.5914 75.5362 14.3228 75.5362 12.685C75.5362 11.0473 74.1616 9.77869 71.8819 9.77869ZM71.8819 14.2536C70.7426 14.2536 70.0148 13.5846 70.0148 12.685C70.0148 11.7855 70.7426 11.128 71.8819 11.128C73.01 11.128 73.7501 11.7855 73.7501 12.685C73.7501 13.5846 73.01 14.2536 71.8819 14.2536ZM81.2094 9.61719H79.5058V10.1707C77.3677 10.2169 76.0868 11.1049 76.0868 12.6735C76.0868 14.242 77.3677 15.0609 79.5058 15.107V15.6606H81.2094V15.107C83.3587 15.0609 84.6396 14.242 84.6396 12.6735C84.6396 11.1049 83.3587 10.2169 81.2094 10.1707V9.61719ZM79.5058 13.9306C78.3308 13.8845 77.8138 13.4116 77.8138 12.6735C77.8138 11.9353 78.3308 11.4048 79.5058 11.3587V13.9306ZM81.2094 11.3587C82.3961 11.4048 82.9008 11.9353 82.9008 12.6735C82.9008 13.4116 82.3961 13.8845 81.2094 13.9306V11.3587ZM90.3067 9.61719H88.6031V10.1707C86.465 10.2169 85.1851 11.1049 85.1851 12.6735C85.1851 14.242 86.465 15.0609 88.6031 15.107V15.6606H90.3067V15.107C92.457 15.0609 93.7374 14.242 93.7374 12.6735C93.7374 11.1049 92.457 10.2169 90.3067 10.1707V9.61719ZM88.6031 13.9306C87.4286 13.8845 86.9116 13.4116 86.9116 12.6735C86.9116 11.9353 87.4286 11.4048 88.6031 11.3587V13.9306ZM90.3067 11.3587C91.4934 11.4048 91.9986 11.9353 91.9986 12.6735C91.9986 13.4116 91.4934 13.8845 90.3067 13.9306V11.3587Z" fill="black"/>
</g>
<defs>
<clipPath id="clip0_6003_60390">
<rect width="93" height="24" fill="white" transform="translate(0.765625)"/>
</clipPath>
</defs>
</svg>