<svg xmlns="http://www.w3.org/2000/svg" width="49" height="16" viewBox="0 0 49 16" fill="none">
<path fill-rule="evenodd" clip-rule="evenodd" d="M12.2505 15.8751H8.00987L4.82991 3.46278C4.67897 2.89181 4.35849 2.38704 3.88708 2.14914C2.71062 1.55128 1.41424 1.07547 0 0.8355V0.357625H6.83134C7.77416 0.357625 8.48128 1.07547 8.59914 1.90917L10.2491 10.8626L14.4877 0.357625H18.6104L12.2505 15.8751ZM20.9677 15.8751H16.9628L20.2606 0.357625H24.2655L20.9677 15.8751ZM29.4469 4.6567C29.5648 3.82093 30.2719 3.34306 31.0969 3.34306C32.3933 3.22307 33.8054 3.46304 34.984 4.05884L35.6911 0.717847C34.5125 0.239972 33.2162 0 32.0397 0C28.1526 0 25.3241 2.1494 25.3241 5.1325C25.3241 7.40189 27.3276 8.59348 28.7419 9.31133C30.2719 10.0271 30.8612 10.505 30.7433 11.2208C30.7433 12.2944 29.5648 12.7723 28.3883 12.7723C26.9741 12.7723 25.5598 12.4144 24.2655 11.8166L23.5584 15.1596C24.9726 15.7554 26.5027 15.9954 27.9169 15.9954C32.2754 16.1133 34.984 13.966 34.984 10.7429C34.984 6.68405 29.4469 6.44614 29.4469 4.6567ZM49 15.8751L45.8201 0.357625H42.4044C41.6973 0.357625 40.9902 0.8355 40.7544 1.55128L34.8659 15.8751H38.9887L39.8116 13.6078H44.8772L45.3486 15.8751H49ZM42.9932 4.53656L44.1696 10.3848H40.8718L42.9932 4.53656Z" fill="#172B85"/>
</svg>