<svg xmlns="http://www.w3.org/2000/svg" width="211" height="54" viewBox="0 0 211 54" fill="none">
  <g clip-path="url(#clip0_6153_10001)">
    <path d="M61.6918 25.1998L62.5031 22.6931L59.8192 22.7742C59.5924 22.7742 57.9442 22.7291 56.3453 21.6099C56.4644 21.6212 56.5835 21.6369 56.7052 21.6369C58.351 21.6369 59.943 20.6802 60.5813 19.3128L61.7363 16.8421C60.2891 16.8601 58.9659 16.6842 58.9659 16.6842C58.9541 16.6818 57.9115 16.5533 56.7052 15.3641C55.8401 14.5112 54.7695 14.0598 53.6098 14.0598C53.1026 14.0598 52.649 14.1478 52.2586 14.2674C52.3194 14.0666 52.3778 13.8635 52.4107 13.6536C52.7799 11.3408 51.237 9.57625 51.237 9.57863L49.2195 7.1665L47.9687 10.0005C47.964 10.0096 47.6484 10.673 47.0827 10.9979C46.912 10.1652 46.4936 9.22886 45.5981 8.33302C43.9101 6.64519 41.8553 6.3947 40.7798 6.3947C40.2818 6.3947 39.9266 6.44664 39.8399 6.46015L37.404 6.92283C37.5442 6.39708 37.8435 5.48313 38.3905 4.65954L39.7349 2.63784L36.3519 3.01015L35.2742 0.801027L33.1889 1.83903L31.2602 0L29.336 1.83903L27.2437 0.801027L26.1682 3.01015L22.7878 2.63784L24.1343 4.65954C24.6814 5.48313 24.9807 6.3947 25.1187 6.92046L22.7947 6.47825L22.7153 6.46475C22.5983 6.44664 22.2454 6.3947 21.7451 6.3947C20.6696 6.3947 18.6148 6.64742 16.9314 8.33302C16.0336 9.22664 15.6152 10.1652 15.4422 10.9979C14.8812 10.6775 14.5679 10.0231 14.5679 10.0231L13.3148 7.17317L11.2646 9.60118C11.0143 9.91473 9.77773 11.5733 10.1143 13.6582C10.1494 13.8658 10.2055 14.0689 10.2663 14.2698C9.87826 14.1501 9.42465 14.0621 8.91742 14.0621C7.75781 14.0621 6.68712 14.5134 5.81978 15.3664C4.61799 16.551 3.58 16.6842 3.58946 16.6842C3.58946 16.6842 2.49296 16.8736 0.795707 16.8442L1.94356 19.3151C2.58187 20.6848 4.17615 21.6393 5.81978 21.6393C5.94368 21.6393 6.06284 21.6233 6.18446 21.6121C4.59004 22.7313 2.94183 22.7764 2.74306 22.7787L0.0078125 22.6931L0.835428 25.1976C1.2516 26.4884 2.64253 28.6274 5.30781 28.8575C5.01783 30.0309 4.37492 31.3442 2.96291 31.9105L0.926639 32.7205L2.03705 34.5866C2.66362 35.593 4.13413 36.7708 6.22877 36.7708C6.68238 36.7685 7.11948 36.7257 7.5404 36.64C7.64795 37.1003 7.78347 37.5607 7.94252 38.0164C8.56664 39.808 8.02899 41.058 8.02197 41.0716L7.01666 43.1046L9.26103 43.6755C9.28913 43.6845 9.96702 43.8627 10.8157 43.8627C11.2015 43.8627 11.5684 43.8245 11.9145 43.7456C12.1763 43.6868 12.4265 43.6079 12.6672 43.513C12.9572 44.0162 13.3102 44.4743 13.7217 44.8849C15.1595 46.3088 17.1958 47.0308 19.7766 47.0308H19.786L21.6283 47.0082L17.8222 48.5336L20.7118 49.8807C21.7615 50.3749 23.0075 50.9592 24.2747 51.406L23.9146 52.3583L24.9106 52.796C24.9993 52.8343 26.914 53.6625 30.0983 53.8384C30.0983 53.8384 30.8674 53.8723 31.2905 53.8723C31.7136 53.8723 32.4734 53.8363 32.4734 53.8363C35.6367 53.6557 37.5372 52.8366 37.6261 52.796L38.6243 52.3561L38.2596 51.4016C39.5642 50.9412 40.8546 50.3342 41.8599 49.8604L44.6957 48.5313L40.9013 47.0038L42.7506 47.0264C45.334 47.0264 47.3726 46.3043 48.8079 44.8782C49.217 44.4698 49.5702 44.0118 49.8624 43.5085C50.1032 43.6034 50.3556 43.6823 50.6174 43.741C50.9611 43.8199 51.3282 43.8584 51.7139 43.8584C52.5484 43.8584 53.2335 43.6801 53.2522 43.6755L55.5059 43.1002L54.5239 41.1055C54.5006 41.0535 53.9629 39.8057 54.5871 38.0119C54.746 37.5538 54.8793 37.0936 54.9868 36.6354C55.4101 36.7212 55.8519 36.7663 56.3078 36.7663C58.9751 36.7663 60.254 34.9544 60.5018 34.5618L61.6006 32.7161L59.5644 31.9082C58.15 31.3418 57.5095 30.0263 57.2219 28.8554C59.8495 28.6386 61.2616 26.4996 61.6918 25.1998ZM25.2962 7.7847L25.2683 7.79152L25.2916 7.76215L25.2962 7.7847Z" fill="white"/>
    <path d="M31.2568 7.67578C29.1013 7.678 27.4859 8.35943 27.1328 9.16046L31.2568 10.7311L35.3808 9.16046C35.0301 8.35943 33.4146 7.678 31.2568 7.67578Z" fill="white"/>
    <path d="M31.3037 49.2442H31.299H31.2639H31.2241H31.2218C29.9149 49.2533 28.1171 48.9937 27.2498 48.75L26.207 51.4735C26.8945 51.7105 29.223 52.1617 31.2639 52.1617C33.3001 52.1617 35.631 51.7083 36.316 51.4735L35.2755 48.75C34.406 48.9959 32.6104 49.2533 31.3037 49.2442Z" fill="white"/>
    <path d="M39.1919 46.543C38.4158 46.9672 36.6834 47.6035 35.6758 47.8991L36.5221 50.1487C38.0814 49.7379 39.3671 49.2575 40.431 48.743L38.6752 48.1788L39.1919 46.543Z" fill="white"/>
    <path d="M23.3289 46.543L23.8479 48.1788L22.0898 48.743C23.1512 49.2575 24.444 49.7379 25.9963 50.1487L26.8427 47.8991C25.8397 47.6035 24.105 46.9649 23.3289 46.543Z" fill="white"/>
    <path d="M31.2626 5.06966C32.8874 5.06966 34.4818 5.44421 35.7068 6.10322C35.8191 5.73981 35.9757 5.29982 36.1884 4.8395L35.7256 4.89366L35.2393 4.94337L35.0335 4.51689L34.414 3.25333L33.2848 3.82182L32.8453 4.03847L32.4946 3.70459L31.2672 2.53125L30.0423 3.70459L29.6916 4.03847L29.2521 3.82182L28.1159 3.25333L27.5033 4.51689L27.293 4.94337L26.8067 4.89366L26.3438 4.8395C26.5566 5.30204 26.7109 5.73981 26.8254 6.10322C28.0528 5.44421 29.6424 5.06966 31.2626 5.06966Z" fill="white"/>
    <path d="M56.0644 19.6721C56.275 19.742 56.4899 19.7735 56.7028 19.7735C57.6214 19.7735 58.5099 19.2005 58.8161 18.5438C58.8161 18.5438 57.1305 18.4446 55.3187 16.6687C54.7414 16.0933 54.1311 15.9219 53.6074 15.9219C52.7938 15.9219 52.1836 16.337 52.1836 16.337C54.3719 17.4607 54.8183 19.2659 56.0644 19.6721Z" fill="white"/>
    <path d="M5.81426 19.7735C6.02693 19.7735 6.24205 19.742 6.44785 19.6721C7.69851 19.2659 8.14739 17.4607 10.3357 16.337C10.3357 16.337 9.72303 15.9219 8.9142 15.9219C8.38817 15.9219 7.77797 16.0933 7.19816 16.6687C5.38877 18.4446 3.70312 18.5438 3.70312 18.5438C4.00472 19.2005 4.89544 19.7735 5.81426 19.7735Z" fill="white"/>
    <path d="M56.6651 27.0127C56.7025 27.0148 56.7352 27.0148 56.775 27.0148C59.0683 27.0148 59.8469 24.6432 59.8469 24.6432H59.8024C59.3817 24.6432 55.9707 24.5486 53.5604 21.5904C51.973 19.6454 50.6731 17.935 48.1037 17.2625L47.8514 17.2196L47.7952 16.9715C47.7251 16.5923 47.994 16.2381 48.6042 15.8545C52.1483 13.614 49.7426 10.7572 49.7426 10.7572C49.7426 10.7572 48.7304 13.0431 46.4651 13.0431C46.4112 13.0431 46.3528 13.0407 46.2967 13.0407C46.0396 13.0272 45.7917 13.0181 45.5415 12.9664L45.123 12.8873C45.123 12.8873 45.7684 11.1928 44.2113 9.63583C43.0377 8.46027 41.6093 8.26172 40.784 8.26172C40.3678 8.26172 40.1036 8.3135 40.1036 8.3135C40.8869 9.3018 41.4526 10.9401 40.5479 11.9509C39.7672 12.8196 37.8594 12.8625 37.8594 14.1577C37.8594 14.706 38.3901 15.3469 39.3439 15.9222C42.2125 17.6664 45.06 19.9792 46.2429 23.0797C47.7228 26.9472 46.0559 29.5128 43.676 30.984C43.676 30.984 44.4218 31.6473 45.5043 31.7308C45.7239 31.7511 45.9391 31.7601 46.1401 31.7601C48.4242 31.7601 49.6048 30.7267 49.6048 30.7267C49.6048 30.7267 49.4106 32.1549 48.2207 33.4818C47.1243 34.707 45.6842 35.4269 43.4889 35.4584C43.4889 35.4584 43.4187 36.4422 44.3914 37.2929C45.0132 37.8299 46.451 38.0059 46.451 38.0059C46.451 38.0059 43.7601 38.5316 43.4632 42.3677C43.3018 44.4457 42.7525 45.1678 42.7525 45.1678H42.8017C49.046 45.1678 48.8846 39.9984 48.8846 39.9984C48.8846 39.9984 49.3195 41.5282 51.0612 41.9276C51.2715 41.9818 51.496 42.0021 51.7111 42.0021C52.2723 42.0021 52.7584 41.8758 52.7584 41.8758C52.7584 41.8758 51.8467 40.0187 52.7514 37.4215C53.5019 35.2666 53.3804 33.6691 53.3804 33.6691C53.3804 33.6691 54.2219 34.8966 56.3074 34.9079H56.3283C58.0655 34.9079 58.8228 33.6376 58.8228 33.6376C54.6592 31.97 55.0707 26.5862 55.0707 26.5862C55.0707 26.5862 55.6108 26.9742 56.6651 27.0127ZM55.4119 32.6355C53.7193 31.8301 52.6486 29.6911 52.3891 28.9192C52.1085 33.1613 49.9624 36.106 47.4539 38.9401C46.1517 40.409 45.6983 41.8373 45.6983 41.8373C45.6983 41.8373 45.9483 40.2195 47.0751 38.9018C49.4154 36.1872 51.6387 32.8094 51.8047 28.9035C51.9192 26.1777 51.1921 23.9665 50.0583 22.1456C50.6918 24.0432 50.603 26.3673 48.4498 28.5356C48.4498 28.5356 52.7351 23.5782 46.7432 18.4968C44.3446 16.5632 41.7215 15.3694 40.3703 14.5233C45.2517 16.0599 47.634 14.3675 47.634 14.3675C46.0745 15.6717 44.0571 15.6491 42.8062 15.4619C43.1452 15.6222 43.4984 15.7891 43.8793 15.9854C47.994 18.1426 51.6925 21.6919 52.3236 26.6088V26.5703C53.2821 31.3968 55.4119 32.6355 55.4119 32.6355Z" fill="white"/>
    <path d="M16.0716 38.0059C16.0716 38.0059 17.5095 37.8322 18.1314 37.2929C19.1014 36.4422 19.0338 35.4584 19.0338 35.4584C16.8362 35.429 15.3984 34.707 14.295 33.4841C13.1143 32.1573 12.9179 30.7289 12.9179 30.7289C12.9179 30.7289 14.0984 31.7625 16.3803 31.7625C16.5861 31.7625 16.7988 31.7534 17.0185 31.7331C18.101 31.6496 18.8491 30.9861 18.8491 30.9861C16.469 29.515 14.8 26.9472 16.2774 23.0797C17.4628 19.9815 20.3078 17.6664 23.1765 15.9222C24.1303 15.3469 24.6609 14.7082 24.6609 14.1577C24.6609 12.8625 22.7556 12.8196 21.9747 11.9509C21.0701 10.9401 21.6382 9.29958 22.419 8.3135C22.419 8.3135 22.1594 8.26172 21.7409 8.26172C20.918 8.26172 19.4896 8.46027 18.316 9.63583C16.7543 11.1928 17.402 12.8873 17.402 12.8873L16.9835 12.9664C16.7334 13.0181 16.4831 13.0272 16.2283 13.0407C16.17 13.0407 16.1184 13.0431 16.0624 13.0431C13.7923 13.0431 12.7847 10.7595 12.7847 10.7595C12.7847 10.7595 10.379 13.6162 13.9208 15.8568C14.5311 16.2404 14.7976 16.5946 14.7275 16.9737L14.6712 17.222L14.4141 17.2649C11.8495 17.9372 10.5474 19.6476 8.96 21.5926C6.5543 24.5464 3.14804 24.6432 2.7227 24.6432H2.67578C2.67578 24.6432 3.45437 27.0148 5.74776 27.0148C5.7852 27.0148 5.81789 27.0148 5.85762 27.0127C6.91196 26.9765 7.45433 26.5862 7.45433 26.5862C7.45433 26.5862 7.86119 31.9676 3.70217 33.6376C3.70217 33.6376 4.45967 34.9079 6.19664 34.9079H6.21772C8.30532 34.8966 9.14471 33.6691 9.14471 33.6691C9.14471 33.6691 9.02309 35.2666 9.77126 37.4215C10.6759 40.0187 9.76882 41.8758 9.76882 41.8758C9.76882 41.8758 10.2551 42.0021 10.8139 42.0021C11.0313 42.0021 11.2534 41.9818 11.4615 41.9276C13.2007 41.5282 13.638 39.9984 13.638 39.9984C13.638 39.9984 13.479 45.1678 19.7234 45.1678H19.7677C19.7677 45.1678 19.2208 44.4457 19.0618 42.3677C18.7626 38.5316 16.0716 38.0059 16.0716 38.0059ZM15.0689 38.9401C12.5603 36.106 10.4165 33.1613 10.1335 28.9192C9.87409 29.6888 8.80798 31.8301 7.11547 32.6355C7.11547 32.6355 9.24279 31.3968 10.1991 26.5703V26.6088C10.8326 21.6943 14.5288 18.1426 18.6456 15.9854C19.022 15.7868 19.3797 15.62 19.7164 15.4619C18.4657 15.6491 16.4481 15.6717 14.8887 14.3675C14.8887 14.3675 17.2709 16.0599 22.1501 14.5233C20.7989 15.3694 18.178 16.5632 15.7794 18.4968C9.78516 23.5782 14.0728 28.5356 14.0728 28.5356C11.9174 26.3649 11.8309 24.0432 12.4644 22.1456C11.3283 23.9687 10.6035 26.1777 10.7203 28.9035C10.884 32.8094 13.1072 36.1872 15.4428 38.9018C16.5721 40.2173 16.8269 41.8373 16.8269 41.8373C16.8269 41.8373 16.3685 40.409 15.0689 38.9401Z" fill="white"/>
    <path d="M26.6425 19.11C26.7452 19.2159 26.8457 19.3312 26.9417 19.4461C26.9651 19.4733 26.986 19.4981 27.0093 19.5298C27.0983 19.6447 27.1895 19.7667 27.276 19.8907C27.2946 19.9155 27.3135 19.9449 27.3344 19.9741C27.4397 20.1276 27.5379 20.2856 27.636 20.4482C28.536 21.9485 29.9786 22.8444 31.2573 22.8466C32.5384 22.8444 33.9763 21.9485 34.881 20.4482C34.9816 20.281 35.0821 20.1186 35.1871 19.9675C35.2036 19.9449 35.2201 19.9246 35.2339 19.902C35.3228 19.7734 35.4164 19.647 35.5146 19.5252C35.5355 19.4981 35.5543 19.4755 35.573 19.453C35.6735 19.3333 35.7763 19.2161 35.8816 19.1076C35.9002 19.0897 35.9142 19.0739 35.9306 19.0604C36.3888 18.6069 36.9359 18.2615 37.6512 18.0698L37.3333 17.8916H37.3147L36.0474 17.1808L34.7454 16.4609L31.2667 18.2887L31.2573 18.2818L31.2502 18.2887L27.7692 16.4609L26.4695 17.1785L25.2 17.8892H25.1859L24.8633 18.0676C25.581 18.2593 26.1257 18.6 26.5863 19.0535C26.6072 19.0716 26.6213 19.0919 26.6425 19.11ZM29.8499 18.9633H31.3227H32.7932V19.9381C32.4474 19.5298 31.7741 19.6133 31.7741 19.6133V21.019C31.7741 21.019 31.7997 21.7095 32.0498 22.0095H31.3227H30.5933C30.8481 21.7117 30.8716 21.019 30.8716 21.019V19.6133C30.8716 19.6133 30.2006 19.5298 29.8499 19.9381V18.9633Z" fill="white"/>
    <path d="M30.9553 17.0675V11.3611L27.1914 10.1289L28.1849 15.6595L30.9553 17.0675ZM30.1464 12.7623V13.6784L29.9641 13.5971C29.9547 13.5904 29.6883 13.5317 29.2206 13.1751C28.4492 12.5976 28.4352 12.065 28.4352 12.065L30.1464 12.7623Z" fill="white"/>
    <path d="M34.3313 15.6595L35.3202 10.1289L31.5586 11.3611V17.0675L34.3313 15.6595ZM32.3676 12.7623L34.0787 12.0672C34.0787 12.0672 34.0648 12.5998 33.291 13.1774C32.8257 13.5339 32.5569 13.5925 32.5475 13.5994L32.365 13.6805V12.7623H32.3676Z" fill="white"/>
    <path d="M25.6335 30.2942C26.0007 30.4227 26.4448 30.4498 26.6716 30.4498C26.681 30.4227 26.6926 30.3888 26.7044 30.3482C26.7253 30.2828 26.7441 30.2196 26.7582 30.1473C26.8213 29.8316 26.8447 29.4728 26.8493 29.2426C26.6949 29.15 26.4775 28.9853 26.3561 28.7394C26.2158 28.4551 26.0171 28.3242 25.7247 28.3242C25.346 28.3242 24.9393 28.5431 24.7662 28.647C24.6285 29.4343 25.2291 30.1497 25.6335 30.2942Z" fill="white"/>
    <path d="M33.9604 27.2734C33.2614 28.0068 31.8938 29.284 31.8259 29.3494L31.7441 29.4307L27.4215 29.3651C27.4191 29.7782 27.3489 30.1301 27.2812 30.3874C27.2696 30.4302 27.2579 30.4754 27.2461 30.5205L32.3894 31.4118C32.9247 31.0508 34.3976 30.0127 34.968 29.6067C34.5518 29.02 34.5121 28.325 34.6056 27.8354C34.3345 27.6661 34.1264 27.4766 33.9604 27.2734Z" fill="white"/>
    <path d="M34.5484 22.2568C33.5524 23.2113 32.5963 23.5633 31.743 23.6445C31.5887 23.6603 31.4321 23.6692 31.2731 23.6692H31.2613H31.2519C31.0931 23.6692 30.9341 23.6603 30.7797 23.6445C30.6301 23.6309 30.4736 23.6084 30.317 23.5746C30.2607 23.7888 30.1906 24.2379 30.3916 24.6621C30.5717 25.048 30.9388 25.3345 31.4741 25.5242L31.6541 25.5918L31.6565 25.7791C31.6565 25.8354 31.6986 27.0495 33.0709 27.3856C33.2953 27.1623 33.4986 26.9615 33.6484 26.7944C33.3677 26.1581 33.5149 25.5083 33.9218 25.1901C33.9032 25.2578 33.7255 26.8509 35.0488 27.4419L35.2661 27.5414L35.2006 27.7647C35.1795 27.8324 34.7377 29.3736 36.3392 29.9467L36.622 30.0505L36.4957 30.3168C36.4678 30.3754 35.8389 31.7745 37.3188 32.5687H40.5285V30.1092C39.3878 29.9737 38.9037 29.0893 38.7799 28.4619C38.2493 28.3739 37.8378 28.1528 37.5571 27.7918C36.8838 26.9366 37.4636 26.1536 37.4707 26.1107C37.4684 26.1176 37.4707 26.9524 38.0037 27.4669C38.2679 27.715 38.5812 27.9069 39.0557 27.9498L39.2895 27.9701L39.3106 28.2003C39.3151 28.2498 39.4438 29.3781 40.5309 29.5563L40.5285 24.5335C40.5285 23.7551 40.7647 22.9721 41.0476 22.25H34.5484V22.2568Z" fill="white"/>
    <path d="M25.9028 24.5472L25.8164 27.7469L26.1926 27.8011L27.1138 24.7323L26.6463 23.7891L25.9028 24.5472Z" fill="white"/>
    <path d="M36.0579 39.2293C36.086 39.2293 36.1187 39.2339 36.1491 39.2407C36.7219 39.3987 36.8669 41.3933 37.8721 41.5715C37.9703 41.5919 38.0615 41.5963 38.141 41.5963C38.4309 41.5963 38.6039 41.4767 38.7909 41.2647C38.7909 41.2647 38.2859 40.4975 37.9072 39.9808C37.4046 39.3038 37.0142 38.4847 36.0791 38.4847C36.0579 38.4847 36.0299 38.4847 36.0066 38.4871C35.698 38.5028 35.5086 38.6472 35.5086 38.6472C35.1298 38.4171 34.7769 38.3381 34.4565 38.3381C33.8698 38.3381 33.4139 38.5977 33.187 38.5977H33.1777L31.0876 38.3991C30.7604 38.3697 30.5033 38.0515 30.4098 37.9275C30.3863 37.8935 30.3747 37.8733 30.3747 37.8733C30.3747 37.8191 30.3747 37.7628 30.37 37.713C30.2999 36.0637 28.9767 35.3574 28.5067 35.346C28.5067 35.346 28.5628 35.0324 28.4343 34.9129L27.9737 35.4521L26.4611 34.7188L27.5389 35.935L26.6247 36.9255C26.5101 37.0385 26.5242 37.1919 26.571 37.255L26.9661 37.5913L27.4664 37.2979C27.4921 37.2799 27.5366 37.2753 27.5926 37.2753C27.7306 37.2753 27.9387 37.3091 28.1257 37.3091C28.329 37.3091 28.5067 37.2662 28.5278 37.0812C28.4647 37.6927 27.8779 38.7555 28.2636 39.5904L28.5489 40.22L26.7019 39.9627L25.8369 41.373C25.5704 41.8424 25.5284 42.35 25.7855 42.6253L26.108 43.0158C26.108 43.0158 26.5616 42.5508 26.6645 42.2462L26.5172 42.0905C26.3933 41.9596 26.4003 41.8424 26.4752 41.7003L27.0175 40.8314L29.1987 41.3279L29.3132 41.1383C29.4605 40.9014 29.6734 40.8291 29.9071 40.8291C30.0029 40.8291 30.1011 40.8404 30.204 40.8563C30.6085 40.933 31.2748 41.0367 31.9411 41.0367C32.6728 41.0367 33.3975 40.9105 33.7831 40.4931C34.5734 41.6235 36.1749 41.804 36.0486 42.377L35.6278 44.3132C35.9061 44.3019 36.1749 44.2838 36.4296 44.2499L36.8295 42.2348C36.8739 42.016 36.9159 41.7204 36.9159 41.7204C36.7616 41.5693 36.3876 41.2489 36.1773 40.8608C35.8943 40.3372 36.0485 40.0642 35.7844 39.3827C35.7938 39.3873 35.8733 39.2293 36.0579 39.2293ZM27.8989 36.3998C27.7914 36.3975 27.7142 36.3096 27.7188 36.2059C27.7283 36.1065 27.8147 36.0275 27.9198 36.0365C28.0274 36.0411 28.1046 36.1313 28.1 36.2307C28.0905 36.3299 28.0018 36.4066 27.8989 36.3998Z" fill="white"/>
    <path d="M24.9304 41.0536C24.9304 41.0536 25.6527 40.7671 25.7181 40.5617L25.6223 40.3293C25.5545 40.1781 25.5639 40.0133 25.6948 39.9232L26.4756 39.4019L27.7802 39.6433C27.7802 39.6433 27.544 39.359 27.5674 38.9777L26.3237 38.7227L25.1501 39.4131C24.6474 39.7764 24.61 40.3698 24.776 40.7218L24.9304 41.0536Z" fill="white"/>
    <path d="M34.1484 44.331C34.3822 44.322 34.6393 44.3175 34.9223 44.3175C34.9223 44.3175 35.5933 42.4244 35.6305 42.3635C35.2543 42.2033 34.4734 41.8037 34.1718 41.6211C34.3705 41.9076 34.8545 42.237 34.7587 42.4898L34.1484 44.331Z" fill="white"/>
    <path d="M40.5305 33.1133H21.9844V39.8464C21.9844 42.5993 24.0488 44.3233 27.0949 44.3233C29.6409 44.3233 30.3117 44.4179 31.2587 45.3251C31.911 44.6979 32.4511 44.4631 33.5591 44.3751L33.5848 44.2714L34.1692 42.5271C34.1365 42.4888 33.1804 41.4396 33.1804 41.4396C32.8016 41.5615 32.4838 41.5818 31.9484 41.5818C31.399 41.5818 30.7795 41.5207 30.1085 41.399C30.0406 41.3832 29.9775 41.3786 29.9143 41.3786C29.8325 41.3786 29.8256 41.3854 29.8045 41.4238L29.6876 41.6087L29.4749 41.9472L29.0752 41.8592L27.296 41.4553L27.0528 41.8435L27.0902 41.884L27.3077 42.1142L27.2119 42.4143C27.0808 42.8069 26.6554 43.265 26.5269 43.3915L26.0826 43.8517L25.6783 43.3576L25.3744 42.9898C25.0539 42.6445 24.9793 42.1142 25.1592 41.5592C25.1545 41.5636 25.1474 41.5659 25.1406 41.5659L24.6379 41.7668L24.411 41.2928L24.2521 40.9568C23.9787 40.3655 24.079 39.5013 24.8157 38.98L26.2487 38.1993L27.6117 38.4589C27.6444 38.3324 27.6934 37.8811 27.7331 37.7662C27.7075 37.7639 27.6818 37.7571 27.656 37.7571L26.8705 38.0391L26.113 37.5337C26.113 37.5337 25.8161 37.2583 26.0849 36.9831L26.819 35.9114L24.9604 33.6593L27.8173 34.7922L28.0068 34.5642L28.3924 34.1197L28.8296 34.5214C28.9535 34.6364 29.0236 34.7785 29.0587 34.9207C29.8465 35.2163 31.2562 36.0896 31.3801 37.5088L30.9384 37.6803V37.6916C31.0389 37.8067 31.123 37.8542 31.1487 37.8585L33.1874 38.0527C33.2388 38.0436 33.3043 38.0211 33.3768 38.0007C33.6292 37.9174 34.0103 37.7977 34.4615 37.7977C34.8286 37.7977 35.1838 37.8789 35.5251 38.0324C35.6514 37.9873 35.8058 37.9534 35.9835 37.9422L36.0815 37.9399C37.1734 37.9399 37.7157 38.7272 38.1507 39.3547C38.2231 39.4628 38.2955 39.5667 38.3704 39.6682C38.7514 40.1873 39.2493 40.9477 39.2704 40.9793L39.4948 41.3178L39.2189 41.6269C39.0063 41.8637 38.6883 42.1414 38.1412 42.1414C38.029 42.1414 37.9052 42.1301 37.7719 42.1051C37.6551 42.0849 37.5498 42.0509 37.447 42.0104C37.4306 42.1142 37.4096 42.2384 37.3884 42.3443L37.0308 44.145C39.1699 43.6374 40.5282 42.0781 40.5282 39.8488L40.5305 33.1133Z" fill="#FFDD2D"/>
    <path d="M21.9869 32.5732H36.4091C35.6889 31.8557 35.6984 30.9463 35.8831 30.3551C35.6726 30.258 35.4996 30.1406 35.3454 30.0143C34.7819 30.4159 33.0612 31.6255 32.6124 31.9277L32.5166 31.991L26.8566 31.0027H26.7421C26.6066 31.0027 26.4078 30.9981 26.1903 30.9733C26.1296 31.2193 25.9099 31.3885 25.6573 31.3885C25.6292 31.3885 25.5965 31.3863 25.5661 31.3795C25.4188 31.3546 25.2904 31.2824 25.2039 31.1628C25.115 31.0456 25.08 30.9056 25.1056 30.7613L25.1267 30.6439C24.5422 30.2468 24.0045 29.3599 24.2429 28.4258L24.2663 28.3266L24.3482 28.2701C24.3599 28.2611 24.458 28.198 24.603 28.1167L24.1915 28.0558C24.0372 28.0287 23.9344 27.891 23.9579 27.7444C23.9835 27.5955 24.1284 27.4893 24.2804 27.5187L25.2599 27.6676L25.3488 24.3371L26.8076 22.8479L27.717 24.696L26.7561 27.9001L27.6212 28.031C27.7731 28.0535 27.8783 28.1911 27.855 28.3423C27.8315 28.4754 27.7147 28.568 27.5767 28.568C27.5627 28.568 27.5464 28.568 27.5323 28.5657L26.8285 28.4552C26.838 28.4754 26.8519 28.4866 26.8614 28.5092C26.9361 28.6582 27.1022 28.7665 27.2003 28.8116L31.5161 28.8771C31.6983 28.7056 32.152 28.2769 32.6172 27.8233C31.5558 27.4352 31.17 26.5507 31.1045 25.9639C30.5108 25.7203 30.1016 25.3548 29.8749 24.8786C29.5989 24.2899 29.6971 23.7008 29.7696 23.4143C29.1945 23.2112 28.5891 22.8412 27.9718 22.25H21.4727C21.7509 22.9719 21.9869 23.7551 21.9869 24.5335V32.5732Z" fill="#FFDD2D"/>
    <path d="M27.932 36.032C27.8267 36.0229 27.738 36.1018 27.7309 36.2011C27.7239 36.3048 27.8034 36.3928 27.9109 36.395C28.0137 36.4041 28.1049 36.3274 28.1142 36.2259C28.1142 36.1266 28.0395 36.0342 27.932 36.032Z" fill="black"/>
    <path d="M40.505 48.2431L39.4366 47.8482L39.7312 46.7832L40.0561 45.6211C40.0561 45.6211 38.1624 46.6118 35.495 47.3565C34.7375 47.5662 34.1647 47.6609 34.1647 47.6609V48.4506C34.1647 48.4506 32.7387 48.6899 31.2962 48.6899H31.2797H31.2588H31.2307H31.2143C29.772 48.6899 28.3458 48.4506 28.3458 48.4506V47.6609C28.3458 47.6609 27.7706 47.5662 27.0156 47.3565C24.348 46.6118 22.4568 45.6211 22.4568 45.6211L22.777 46.7832L23.0786 47.8482L22.0079 48.2431L20.8203 48.6717C22.1833 49.3058 24.0698 50.2311 25.7976 50.6868L25.3908 51.7609C25.3908 51.7609 27.5813 52.7244 31.2307 52.7335V52.7357H31.2425H31.2588H31.2729H31.2821V52.7335C34.9363 52.7244 37.1244 51.7609 37.1244 51.7609L36.7152 50.6868C38.4429 50.2311 40.3343 49.3058 41.6902 48.6717L40.505 48.2431ZM22.0874 48.744L23.8454 48.18L23.3264 46.544C24.1002 46.9682 25.8374 47.6045 26.8425 47.9001L25.994 50.1497C24.4415 49.7369 23.1487 49.2562 22.0874 48.744ZM31.2588 52.1693C29.2178 52.1693 26.887 51.7157 26.2021 51.4812L27.2446 48.7576C28.1096 49.0014 29.9098 49.2607 31.2166 49.2516H31.2191H31.2588H31.2938H31.2986C32.6055 49.2607 34.4008 49.0014 35.2706 48.7576L36.3108 51.4812C35.6259 51.718 33.2974 52.1693 31.2588 52.1693ZM36.5189 50.1497L35.6727 47.9001C36.6802 47.6045 38.4125 46.9682 39.1888 46.544L38.6721 48.18L40.4278 48.744C39.364 49.2562 38.0782 49.7369 36.5189 50.1497Z" fill="black"/>
    <path d="M31.2588 5.73243C33.433 5.73243 35.1722 6.4275 36.1331 7.16991C36.1331 7.16991 36.4183 5.51133 37.3933 4.04699L35.6422 4.2387L34.7258 2.35915L32.9654 3.23468L31.2588 1.60547L29.5568 3.23468L27.7941 2.35915L26.88 4.2387L25.1289 4.04699C26.1037 5.51133 26.389 7.16991 26.389 7.16991C27.3521 6.4275 29.0868 5.73243 31.2588 5.73243ZM26.8004 4.89757L27.2867 4.94728L27.4972 4.5208L28.1096 3.25723L29.2458 3.82349L29.6854 4.04015L30.0361 3.70627L31.2611 2.53293L32.4885 3.70627L32.8392 4.04015L33.2786 3.82349L34.4079 3.25723L35.0274 4.5208L35.2331 4.94728L35.7194 4.89757L36.1823 4.84341C35.9695 5.30609 35.8128 5.74371 35.7005 6.10712C34.4755 5.44826 32.8811 5.07357 31.2565 5.07357C29.6387 5.07357 28.0465 5.44826 26.8168 6.10712C26.7024 5.74371 26.548 5.30371 26.3352 4.84341L26.8004 4.89757Z" fill="black"/>
    <path d="M56.7651 27.7309C59.5777 27.7309 60.5174 24.9691 60.5571 24.8517L60.8704 23.8791L59.816 23.9108H59.8115C59.4397 23.9108 56.3373 23.8317 54.1374 21.1331L53.9293 20.8827C52.4916 19.1181 51.1287 17.4416 48.6926 16.6766C48.7627 16.6158 48.8633 16.539 49.0012 16.4533C50.294 15.6319 51.0467 14.6345 51.2361 13.477C51.512 11.735 50.3619 10.3473 50.3104 10.2909L49.5272 9.35678L49.0387 10.4647C49.006 10.5346 48.1829 12.3082 46.4529 12.3082H46.3243C46.2052 12.3014 46.0929 12.2969 45.9807 12.2878C46.0416 11.4959 45.8918 10.2706 44.7417 9.12203C43.3599 7.73886 41.6627 7.53125 40.7744 7.53125C40.2997 7.53125 39.9841 7.58765 39.9513 7.59225L38.7685 7.81781L39.4979 8.74526C40.0707 9.46052 40.5896 10.7806 39.9747 11.4711C39.7783 11.6899 39.374 11.8682 38.9859 12.0464C38.1887 12.4006 37.1016 12.8925 37.1016 14.1472C37.1016 14.9595 37.7539 15.8079 38.9368 16.5299C42.439 18.6555 44.599 20.8736 45.5319 23.3217C46.9743 27.0879 45.0923 29.2359 43.2641 30.3665L42.4435 30.8763L43.1613 31.5126C43.2571 31.594 44.1362 32.3408 45.4336 32.4492C45.6791 32.4649 45.9151 32.4784 46.135 32.4784C46.9673 32.4784 47.6757 32.3521 48.2507 32.1827C48.0917 32.4513 47.8977 32.7244 47.6523 32.9997C46.6073 34.1684 45.3214 34.701 43.4722 34.7281L42.7848 34.7394L42.7311 35.405C42.724 35.5381 42.6727 36.7724 43.8836 37.8217C44.0684 37.984 44.2928 38.1173 44.5265 38.2279C43.706 38.9409 42.8712 40.1819 42.7102 42.3097C42.5745 44.0855 42.1349 44.7422 42.1303 44.7488L41.3706 45.868L42.7429 45.8862C45.0106 45.8862 46.7475 45.2815 47.9514 44.0855C48.6622 43.377 49.0691 42.5782 49.3099 41.8698C49.7049 42.1946 50.2146 42.4789 50.8784 42.63C51.131 42.6865 51.4069 42.718 51.7038 42.718C52.3444 42.718 52.8798 42.5872 52.9405 42.5737L53.8171 42.348L53.4291 41.5582C53.401 41.4951 52.6693 39.9111 53.4571 37.6501C53.7961 36.6731 53.9691 35.7976 54.0532 35.1162C54.605 35.3936 55.3438 35.6238 56.2999 35.6261C58.4694 35.6261 59.4256 34.0624 59.4701 33.997L59.8979 33.2794L59.1054 32.9636C56.5197 31.9279 55.947 29.1456 55.8324 27.6384C56.0661 27.6813 56.3327 27.7219 56.6342 27.7309H56.7651ZM58.8154 33.6291C58.8154 33.6291 58.0579 34.8996 56.3209 34.8996H56.2999C54.2145 34.8883 53.3729 33.6607 53.3729 33.6607C53.3729 33.6607 53.4945 35.2584 52.7418 37.4132C51.837 40.0104 52.7487 41.8675 52.7487 41.8675C52.7487 41.8675 52.2625 41.9938 51.7015 41.9938C51.4863 41.9938 51.2619 41.9735 51.0515 41.9193C49.3099 41.5199 48.875 39.9901 48.875 39.9901C48.875 39.9901 49.0362 45.1596 42.7919 45.1596H42.7429C42.7429 45.1596 43.2922 44.4375 43.4558 42.3592C43.7527 38.5234 46.4437 37.9977 46.4437 37.9977C46.4437 37.9977 45.0081 37.824 44.3863 37.2847C43.4137 36.4339 43.4815 35.4501 43.4815 35.4501C45.6791 35.4208 47.1169 34.6988 48.2133 33.4735C49.401 32.1467 49.5974 30.7184 49.5974 30.7184C49.5974 30.7184 48.4166 31.7519 46.1327 31.7519C45.9317 31.7519 45.7165 31.7428 45.4967 31.7225C44.4167 31.6391 43.6686 30.9756 43.6686 30.9756C46.0461 29.5044 47.7153 26.9366 46.2356 23.069C45.0502 19.971 42.2028 17.656 39.3366 15.9117C38.3827 15.3363 37.852 14.6978 37.852 14.1472C37.852 12.852 39.7597 12.8114 40.543 11.9403C41.4452 10.9295 40.8795 9.28912 40.0964 8.30305C40.0964 8.30305 40.3605 8.25111 40.7766 8.25111C41.6019 8.25111 43.0304 8.45188 44.2039 9.62523C45.7633 11.1822 45.1156 12.8768 45.1156 12.8768L45.5342 12.9558C45.7843 13.0077 46.0322 13.0168 46.2893 13.028C46.3453 13.028 46.4015 13.0302 46.4576 13.0302C48.723 13.0302 49.7353 10.7444 49.7353 10.7444C49.7353 10.7444 52.1433 13.6034 48.5991 15.8417C47.9889 16.2253 47.72 16.5795 47.7902 16.9586L47.8464 17.2069L48.0988 17.2498C50.6681 17.9222 51.9679 19.6326 53.5553 21.5775C55.9656 24.5358 59.3766 24.6306 59.7974 24.6306H59.8418C59.8418 24.6306 59.0632 27.002 56.7699 27.002C56.7324 27.002 56.6997 27.002 56.66 26.9999C55.6057 26.9636 55.0656 26.5734 55.0656 26.5734C55.0656 26.5734 54.6518 31.9594 58.8154 33.6291Z" fill="black"/>
    <path d="M51.8302 16.9819C52.8798 17.5211 53.49 18.2432 54.0254 18.884C54.5514 19.509 55.0517 20.1115 55.8324 20.362C56.1106 20.4546 56.4052 20.4975 56.7045 20.4975C57.878 20.4975 59.0564 19.8046 59.5028 18.8457L59.9517 17.8844L58.8647 17.8212C58.8132 17.819 57.4152 17.6971 55.8583 16.1605C55.2176 15.5311 54.4438 15.1992 53.6091 15.1992C52.59 15.1992 51.8347 15.6911 51.7506 15.7409L50.75 16.4201L51.8302 16.9819ZM53.6116 15.9259C54.1351 15.9259 54.7454 16.0973 55.3229 16.6727C57.1345 18.4486 58.8202 18.5478 58.8202 18.5478C58.514 19.2022 57.6256 19.7776 56.7068 19.7776C56.4941 19.7776 56.2813 19.746 56.0686 19.6761C54.8226 19.2699 54.3759 17.4648 52.1854 16.341C52.1854 16.341 52.7981 15.9259 53.6116 15.9259Z" fill="black"/>
    <path d="M52.3167 26.5683V26.6045C51.6855 21.69 47.987 18.1406 43.8724 15.9812C43.4914 15.7848 43.1407 15.6179 42.7994 15.4577C44.0524 15.645 46.07 15.6676 47.627 14.3633C47.627 14.3633 45.2447 16.0557 40.3633 14.5191C41.7147 15.3652 44.34 16.5589 46.7363 18.4926C52.7283 23.574 48.4406 28.5314 48.4406 28.5314C50.5938 26.3631 50.6825 24.039 50.0491 22.1413C51.1829 23.9622 51.9076 26.1734 51.7953 28.8993C51.6295 32.8051 49.4061 36.183 47.0658 38.8975C45.9414 40.2153 45.689 41.8331 45.689 41.8331C45.689 41.8331 46.1424 40.4048 47.4446 38.9358C49.9532 36.1019 52.0969 33.1571 52.3775 28.915C52.637 29.6846 53.7054 31.8259 55.4003 32.6314C55.4049 32.6336 53.2752 31.3949 52.3167 26.5683Z" fill="black"/>
    <path d="M20.3838 44.7488C20.3814 44.7421 19.9466 44.0854 19.8065 42.3095C19.6428 40.1818 18.8104 38.9407 17.9875 38.2277C18.226 38.1194 18.4457 37.9863 18.6305 37.8216C19.8392 36.7722 19.7876 35.5381 19.7806 35.405L19.7339 34.7393L19.0418 34.728C17.1974 34.6986 15.9091 34.1661 14.8641 32.9995C14.621 32.7243 14.4247 32.4512 14.2657 32.1827C14.8407 32.3519 15.5444 32.4784 16.379 32.4784C16.6036 32.4784 16.835 32.4647 17.0804 32.449C18.3779 32.3407 19.257 31.596 19.3551 31.5126L20.0728 30.8763L19.2523 30.3662C17.417 29.2336 15.5421 27.0854 16.9822 23.3217C17.915 20.8735 20.0728 18.6554 23.5796 16.5298C24.7626 15.8077 25.4101 14.9594 25.4101 14.1471C25.4101 12.8925 24.3254 12.3983 23.5282 12.0463C23.14 11.868 22.7357 11.6898 22.5394 11.471C21.9221 10.7827 22.4434 9.46051 23.0139 8.74511L23.748 7.81779L22.5603 7.59209C22.5253 7.58764 22.2143 7.53125 21.7375 7.53125C20.849 7.53125 19.1565 7.73885 17.7724 9.12202C16.6198 10.2728 16.468 11.498 16.5264 12.2877C16.4142 12.2968 16.302 12.3014 16.185 12.308H16.0588C14.3242 12.308 13.5036 10.5346 13.4709 10.4645L12.9821 9.35664L12.192 10.2908C12.1476 10.3473 10.9927 11.7372 11.2732 13.4769C11.4603 14.6344 12.213 15.6317 13.5058 16.4531C13.6461 16.5389 13.7443 16.6155 13.8144 16.6766C11.3808 17.4414 10.0201 19.1203 8.58232 20.8847L8.37423 21.1352C6.17677 23.8339 3.06736 23.913 2.69565 23.913L1.63672 23.8813L1.95924 24.8537C1.99667 24.9711 2.93414 27.733 5.74883 27.733L5.8845 27.7286C6.18135 27.7195 6.44796 27.6811 6.68645 27.636C6.56942 29.141 5.99664 31.9233 3.40867 32.9612L2.61848 33.2771L3.04643 33.9946C3.08845 34.0601 4.04699 35.6238 6.22107 35.6238C7.1703 35.6215 7.909 35.3913 8.46315 35.1138C8.54733 35.7952 8.72028 36.6708 9.0593 37.6478C9.8472 39.9087 9.11308 41.4928 9.08496 41.556L8.6969 42.3458L9.576 42.5714C9.63437 42.5848 10.1745 42.7157 10.8126 42.7157C11.1119 42.7157 11.3878 42.6841 11.6357 42.6277C12.302 42.4765 12.8162 42.1923 13.2065 41.8673C13.445 42.5757 13.8542 43.3746 14.5627 44.0831C15.7688 45.279 17.5035 45.8837 19.7712 45.8837L21.1459 45.8657L20.3838 44.7488ZM19.7198 45.1617C13.4754 45.1617 13.6345 39.9922 13.6345 39.9922C13.6345 39.9922 13.1997 41.5221 11.458 41.9215C11.2499 41.9756 11.0277 41.996 10.8103 41.996C10.2493 41.996 9.7653 41.8695 9.7653 41.8695C9.7653 41.8695 10.6724 40.0125 9.76759 37.4154C9.01957 35.2604 9.14119 33.663 9.14119 33.663C9.14119 33.663 8.30181 34.8905 6.21421 34.9017H6.19312C4.45615 34.9017 3.69865 33.6313 3.69865 33.6313C7.85996 31.9639 7.45081 26.58 7.45081 26.58C7.45081 26.58 6.91089 26.9681 5.8541 27.0065C5.81667 27.0087 5.78168 27.0087 5.74424 27.0087C3.4484 27.0087 2.67227 24.6372 2.67227 24.6372H2.71901C3.14223 24.6372 6.54849 24.5424 8.95877 21.5843C10.5462 19.6392 11.8483 17.931 14.4129 17.2565L14.67 17.2136L14.7263 16.9654C14.7964 16.5862 14.5298 16.232 13.9197 15.8484C10.3755 13.6078 12.7835 10.7511 12.7835 10.7511C12.7835 10.7511 13.7911 13.0347 16.0611 13.0347C16.1172 13.0347 16.1687 13.0324 16.2271 13.0324C16.4819 13.0188 16.7345 13.0098 16.9822 12.9579L17.4008 12.8789C17.4008 12.8789 16.7531 11.1844 18.3148 9.62746C19.4885 8.45188 20.9168 8.25333 21.7397 8.25333C22.1582 8.25333 22.4177 8.30513 22.4177 8.30513C21.6369 9.29342 21.0712 10.9317 21.9734 11.9426C22.7543 12.8113 24.6597 12.8541 24.6597 14.1493C24.6597 14.6976 24.1291 15.3385 23.1753 15.9139C20.3066 17.6581 17.4592 19.9731 16.2762 23.0712C14.7987 26.9388 16.4656 29.5043 18.8478 30.9778C18.8478 30.9778 18.0997 31.6411 17.0173 31.7247C16.7976 31.745 16.5848 31.754 16.379 31.754C14.0973 31.754 12.9167 30.7204 12.9167 30.7204C12.9167 30.7204 13.113 32.149 14.2938 33.4757C15.3972 34.7008 16.835 35.4229 19.0326 35.4523C19.0326 35.4523 19.1027 36.4362 18.1301 37.2867C17.506 37.8237 16.0704 37.9997 16.0704 37.9997C16.0704 37.9997 18.7637 38.5255 19.0582 42.3615C19.2196 44.4396 19.7643 45.1617 19.7643 45.1617H19.7198Z" fill="black"/>
    <path d="M5.81294 20.5029C6.11454 20.5029 6.40909 20.4599 6.68716 20.3673C7.47276 20.1169 7.97068 19.5145 8.4967 18.8894C9.03449 18.2486 9.63997 17.5266 10.6896 16.9873L11.7698 16.4277L10.7667 15.7484C10.6825 15.6966 9.92979 15.207 8.91287 15.207C8.07594 15.207 7.29981 15.5364 6.66149 16.1681C5.1045 17.7026 3.70883 17.8266 3.65734 17.8289L2.57031 17.8898L3.01689 18.8533C3.46561 19.8077 4.64157 20.5029 5.81294 20.5029ZM7.19684 16.6782C7.77664 16.1027 8.38685 15.9313 8.91287 15.9313C9.7217 15.9313 10.3342 16.3463 10.3342 16.3463C8.14606 17.4724 7.6972 19.2754 6.44638 19.6815C6.24073 19.7514 6.02562 19.783 5.81294 19.783C4.89411 19.783 4.00569 19.2099 3.70181 18.5533C3.70181 18.551 5.385 18.4516 7.19684 16.6782Z" fill="black"/>
    <path d="M10.7245 28.8993C10.6076 26.1734 11.3324 23.9621 12.4685 22.1412C11.835 24.0389 11.9215 26.363 14.077 28.5315C14.077 28.5315 9.78934 23.5741 15.7835 18.4926C18.1823 16.5588 20.8053 15.3651 22.1543 14.5189C17.2752 16.0555 14.8928 14.3633 14.8928 14.3633C16.4498 15.6676 18.4675 15.645 19.7206 15.4555C19.3816 15.6156 19.0262 15.7826 18.6497 15.9789C14.5306 18.1383 10.8344 21.6877 10.2008 26.6022V26.5639C9.24468 31.3904 7.11719 32.6291 7.11719 32.6291C8.80986 31.8235 9.87597 29.6845 10.1354 28.9129C10.4183 33.155 12.562 36.0995 15.0706 38.9337C16.3727 40.4025 16.831 41.8309 16.831 41.8309C16.831 41.8309 16.5762 40.2129 15.447 38.8952C13.1115 36.1853 10.8881 32.8051 10.7245 28.8993Z" fill="black"/>
    <path d="M29.8477 18.9609V19.9357C30.196 19.5273 30.8694 19.6109 30.8694 19.6109V21.0166C30.8694 21.0166 30.8459 21.7071 30.5911 22.0071H31.3205H32.0476C31.7975 21.7093 31.7716 21.0166 31.7716 21.0166V19.6109C31.7716 19.6109 32.4449 19.5273 32.791 19.9357V18.9609H31.3205H29.8477Z" fill="black"/>
    <path d="M29.2268 13.1804C29.692 13.5371 29.9609 13.5957 29.9703 13.6025L30.1526 13.6837V12.7653L28.4414 12.0703C28.4414 12.0726 28.4577 12.6028 29.2268 13.1804Z" fill="black"/>
    <path d="M33.2906 13.1804C34.0644 12.6028 34.0784 12.0703 34.0784 12.0703L32.3672 12.7653V13.6837L32.5471 13.6025C32.5589 13.5957 32.8254 13.5371 33.2906 13.1804Z" fill="black"/>
    <path d="M36.3771 9.43748C36.3771 8.04527 33.948 6.79297 31.2665 6.79297H31.2642H31.2573H31.2502C28.5687 6.79297 26.1396 8.04527 26.1396 9.43748L26.1935 9.78043L27.2641 15.7126L26.1889 16.3151L23.4067 17.8833H23.4162C23.4162 17.8833 22.7896 18.1924 22.4996 18.3842C21.4407 19.0951 21.2163 20.1307 21.831 20.5594C21.9831 19.7155 22.675 18.831 23.9701 18.831C24.903 18.831 25.6137 19.2958 26.1889 19.9931C26.3361 20.1691 26.4764 20.3564 26.6073 20.5594C26.7685 20.8143 26.9298 21.0379 27.0912 21.2545H19.9258C20.4518 22.2766 20.952 23.3598 20.952 24.5353V39.8429C20.952 43.548 23.9047 45.317 27.0982 45.317C29.567 45.317 29.8991 45.2087 31.262 46.5174C32.6179 45.2065 32.9499 45.317 35.421 45.317C38.6167 45.317 41.5648 43.548 41.5648 39.8429V24.5353C41.5648 23.3598 42.0652 22.2766 42.5935 21.2545H35.4256C35.5846 21.04 35.7459 20.8143 35.9071 20.5594C36.0405 20.3564 36.1783 20.1691 36.3233 19.9931C36.9031 19.2936 37.6114 18.831 38.5443 18.831C39.8394 18.831 40.5291 19.7133 40.6834 20.5594C41.2984 20.1307 41.0762 19.0951 40.0101 18.3842C39.7249 18.1924 39.0982 17.8833 39.0982 17.8833H39.1077L36.3257 16.3151L35.2549 15.7126L36.3257 9.78043L36.3771 9.43748ZM27.194 10.128L30.958 11.3599V17.0665L28.1877 15.6562L27.194 10.128ZM27.9726 22.2494C28.5898 22.8428 29.1953 23.2107 29.7703 23.4138C29.6955 23.7004 29.5975 24.2916 29.8756 24.8804C30.1023 25.3543 30.5138 25.7199 31.1052 25.9636C31.1707 26.5504 31.5541 27.4325 32.6179 27.823C32.1527 28.2764 31.699 28.7029 31.5144 28.8766L27.201 28.8112C27.1029 28.7637 26.9369 28.6578 26.8622 28.5066C26.8527 28.4863 26.8387 28.4749 26.8318 28.4524L27.5353 28.5629C27.5518 28.5652 27.5657 28.5652 27.5798 28.5652C27.7154 28.5652 27.8346 28.4749 27.858 28.3396C27.8814 28.1884 27.7762 28.0507 27.6243 28.0281L26.7592 27.8973L27.7201 24.6954L26.8107 22.8474L25.3519 24.3368L25.2629 27.6671L24.2835 27.5183C24.1315 27.4889 23.9865 27.5973 23.9609 27.7439C23.9374 27.8907 24.0403 28.0281 24.1945 28.0553L24.606 28.1161C24.4588 28.1975 24.363 28.2606 24.3512 28.2696L24.267 28.326L24.2437 28.4255C24.0053 29.3596 24.5452 30.2463 25.1275 30.6434L25.1064 30.7607C25.083 30.9053 25.1157 31.045 25.2046 31.1624C25.2887 31.282 25.4196 31.3542 25.5645 31.379C25.595 31.3835 25.6276 31.3857 25.6558 31.3857C25.9082 31.3857 26.1281 31.2165 26.1912 30.9707C26.4085 30.9954 26.6073 30.9999 26.7428 30.9999H26.8575L32.5174 31.986L32.6132 31.9251C33.0643 31.6204 34.7827 30.4111 35.3461 30.0115C35.5004 30.1403 35.6734 30.2577 35.8838 30.3545C35.7014 30.9457 35.6898 31.8551 36.4122 32.5727H21.9877V24.5376C21.9877 23.7591 21.7516 22.9762 21.4734 22.254H27.9726V22.2494ZM34.9673 29.601C34.3946 30.0072 32.9218 31.045 32.3888 31.406L27.2455 30.5148C27.2573 30.4697 27.2688 30.4268 27.2806 30.3817C27.3483 30.1243 27.4162 29.7724 27.4209 29.3596L31.7435 29.4273L31.8253 29.3459C31.8908 29.2828 33.2608 28.0056 33.9598 27.27C34.1258 27.4708 34.3338 27.6627 34.605 27.8318C34.5115 28.3193 34.5512 29.0142 34.9673 29.601ZM26.3571 28.7412C26.4787 28.9872 26.6983 29.1519 26.8504 29.2444C26.8457 29.4745 26.8223 29.8333 26.7592 30.1493C26.7451 30.2192 26.7265 30.2846 26.7054 30.35C26.6938 30.3908 26.6821 30.4246 26.6727 30.4516C26.446 30.4516 25.9994 30.4246 25.6347 30.2959C25.2304 30.1515 24.6272 29.4362 24.7673 28.6488C24.9428 28.5449 25.3472 28.326 25.726 28.326C26.0182 28.3238 26.2168 28.4569 26.3571 28.7412ZM25.8218 27.7507L25.9082 24.5533L26.6517 23.7929L27.1193 24.7361L26.1981 27.8048L25.8218 27.7507ZM34.9206 44.3264C34.6401 44.3264 34.3806 44.3309 34.1468 44.34L34.7593 42.5009C34.8552 42.246 34.3712 41.9188 34.1724 41.6323C34.474 41.8151 35.2549 42.2144 35.6314 42.3747C35.5917 42.4333 34.9206 44.3264 34.9206 44.3264ZM36.8423 42.237L36.4426 44.2498C36.1878 44.2836 35.9166 44.3015 35.6383 44.3129L36.0592 42.3769C36.1854 41.8014 34.584 41.6232 33.7939 40.4927C33.4081 40.9124 32.681 41.0366 31.9516 41.0366C31.2853 41.0366 30.6191 40.9327 30.2145 40.856C30.1117 40.8403 30.0135 40.829 29.9177 40.829C29.6839 40.829 29.471 40.8989 29.3238 41.1381L29.2069 41.3277L27.0258 40.8312L26.4834 41.6977C26.4062 41.8376 26.4015 41.9573 26.5255 42.0879L26.6727 42.2438C26.5722 42.5507 26.1187 43.0132 26.1187 43.0132L25.7938 42.6227C25.5365 42.3453 25.5786 41.8399 25.8475 41.3705L26.7124 39.9602L28.5594 40.2174L28.2718 39.5857C27.8861 38.7508 28.4729 37.688 28.536 37.0765C28.515 37.2615 28.3395 37.3022 28.1339 37.3022C27.9469 37.3022 27.7388 37.2683 27.6008 37.2683C27.5471 37.2683 27.5003 37.2727 27.4746 37.2908L26.9743 37.5842L26.5792 37.2479C26.5324 37.1825 26.5161 37.0313 26.6329 36.9185L27.5471 35.9302L26.4671 34.714L27.9796 35.4474L28.4401 34.9081C28.5665 35.0277 28.5126 35.3413 28.5126 35.3413C28.9849 35.3525 30.308 36.0589 30.3783 37.7061C30.3829 37.7556 30.3829 37.8121 30.3829 37.8661C30.3829 37.8661 30.3947 37.8866 30.418 37.9203C30.5115 38.0446 30.7686 38.3627 31.0958 38.3919L33.186 38.5906H33.1952C33.4245 38.5906 33.8803 38.3311 34.4647 38.3311C34.7827 38.3311 35.138 38.41 35.5168 38.6402C35.5168 38.6402 35.7061 38.4958 36.0147 38.4799C36.038 38.4777 36.0639 38.4777 36.0873 38.4777C37.0248 38.4777 37.4128 39.2946 37.9154 39.9738C38.2942 40.4905 38.7992 41.2577 38.7992 41.2577C38.6121 41.472 38.439 41.5894 38.1492 41.5894C38.0698 41.5894 37.9785 41.5825 37.8803 41.5646C36.875 41.3862 36.7302 39.3916 36.1574 39.2336C36.127 39.2246 36.0943 39.2224 36.0662 39.2224C35.8815 39.2224 35.7998 39.3804 35.7998 39.3804C36.0614 40.0594 35.9095 40.3348 36.1901 40.8583C36.4004 41.2464 36.7745 41.5668 36.9288 41.718C36.9288 41.7225 36.8868 42.0159 36.8423 42.237ZM25.6184 40.3325L25.7142 40.565C25.6511 40.7681 24.9265 41.0568 24.9265 41.0568L24.7697 40.7273C24.6037 40.3753 24.6387 39.782 25.1438 39.4187L26.3174 38.7282L27.5612 38.9831C27.5377 39.3645 27.7738 39.6489 27.7738 39.6489L26.4693 39.4074L25.6885 39.9287C25.5576 40.0166 25.5482 40.1814 25.6184 40.3325ZM37.0387 44.1392L37.3965 42.3384C37.4151 42.2325 37.4384 42.1084 37.4548 42.0045C37.5554 42.0453 37.663 42.0791 37.7798 42.0994C37.913 42.1242 38.0369 42.1354 38.1492 42.1354C38.6963 42.1354 39.0142 41.8578 39.227 41.6209L39.5029 41.3118L39.2784 40.9734C39.2574 40.9395 38.7617 40.1814 38.3783 39.6623C38.3035 39.5609 38.2309 39.4593 38.1586 39.3487C37.7237 38.7214 37.179 37.934 36.0873 37.934L35.989 37.9363C35.809 37.9475 35.6548 37.9813 35.5309 38.0264C35.1871 37.8707 34.8341 37.7918 34.467 37.7918C34.0159 37.7918 33.6348 37.9115 33.3823 37.9949C33.3098 38.0152 33.2444 38.0377 33.193 38.0468L31.152 37.8527C31.1263 37.8483 31.0421 37.8009 30.9416 37.6835V37.6744L31.3834 37.5029C31.2596 36.0837 29.8475 35.2104 29.0597 34.9148C29.0247 34.7726 28.9545 34.6304 28.8306 34.5155L28.3911 34.1138L28.0053 34.5606L27.816 34.7886L24.9592 33.6557L26.8177 35.9076L26.0836 36.9795C25.8147 37.2548 26.1117 37.5301 26.1117 37.5301L26.869 38.0332L27.6547 37.7512C27.6826 37.7512 27.7061 37.7581 27.7317 37.7602C27.6944 37.8752 27.6453 38.3265 27.6125 38.4529L26.2495 38.1934L24.8165 38.9742C24.08 39.4954 23.9795 40.3596 24.2531 40.9509L24.412 41.2869L24.6387 41.7609L25.1391 41.56C25.1461 41.5577 25.1532 41.5555 25.1577 41.5511C24.9778 42.1061 25.0503 42.6341 25.3728 42.9816L25.6767 43.3517L26.0813 43.8458L26.5255 43.3855C26.6564 43.2591 27.0796 42.8012 27.2105 42.4085L27.3063 42.1082L27.0889 41.8782L27.0538 41.8376L27.297 41.4494L29.076 41.8534L29.4758 41.9413L29.6885 41.6029L29.8055 41.4178C29.8265 41.3795 29.8334 41.3727 29.9153 41.3727C29.9784 41.3727 30.0415 41.3795 30.1094 41.3931C30.7803 41.5149 31.3997 41.5759 31.9492 41.5759C32.4822 41.5759 32.8001 41.5555 33.1812 41.4337C33.1812 41.4337 34.1374 42.4806 34.1701 42.5213L33.5858 44.2632L33.56 44.3693C32.4519 44.4549 31.9119 44.6897 31.2596 45.3193C30.3127 44.4121 29.6417 44.3175 27.096 44.3175C24.0496 44.3175 21.9854 42.5935 21.9854 39.8407V33.1098H40.5291L40.5339 39.8407C40.5361 42.0745 39.1779 43.6314 37.0387 44.1392ZM41.0481 22.2494C40.7653 22.9715 40.5291 23.7546 40.5291 24.5331L40.5316 29.5559C39.4443 29.3799 39.3158 28.2492 39.3111 28.1997L39.2901 27.9696L39.0563 27.9492C38.584 27.9064 38.2708 27.7122 38.0066 27.4642C37.4736 26.9497 37.4711 26.1148 37.4736 26.1079C37.4666 26.1508 36.8868 26.9338 37.5601 27.789C37.8429 28.15 38.252 28.3712 38.7828 28.4592C38.9067 29.0865 39.3906 29.9709 40.5316 30.1064V32.5659H37.3239C35.844 31.7717 36.4706 30.3726 36.5009 30.314L36.6273 30.0477L36.3444 29.9439C34.7429 29.3708 35.1825 27.8274 35.2058 27.7619L35.2712 27.5362L35.0539 27.437C33.7306 26.8458 33.9107 25.2506 33.9271 25.1851C33.5203 25.5032 33.3729 26.153 33.6535 26.7894C33.5015 26.9564 33.2983 27.1595 33.0761 27.3806C31.7061 27.0445 31.6641 25.8282 31.6641 25.7719L31.6616 25.5845L31.4817 25.5168C30.9463 25.325 30.5792 25.0385 30.3992 24.6525C30.1959 24.2262 30.2682 23.7794 30.3245 23.5649C30.4811 23.5988 30.6377 23.6237 30.7873 23.635C30.9416 23.6507 31.1006 23.6598 31.2596 23.6598H31.2689H31.2806C31.4396 23.6598 31.5963 23.6507 31.7506 23.635C32.6038 23.5537 33.56 23.1995 34.556 22.2472H41.0481V22.2494ZM36.0498 17.1724L37.3169 17.8833H37.3356L37.6536 18.0615C36.9382 18.2533 36.3912 18.5986 35.933 19.0521C35.9166 19.0657 35.9003 19.0838 35.8838 19.0995C35.7786 19.2078 35.6734 19.3252 35.5753 19.4448C35.5565 19.4674 35.5378 19.4922 35.5168 19.517C35.4186 19.6388 35.3275 19.763 35.2385 19.8938C35.2246 19.9164 35.2081 19.939 35.1918 19.9592C35.0866 20.1104 34.9862 20.2729 34.8856 20.4398C33.9832 21.9403 32.543 22.8362 31.262 22.8384C29.9832 22.8362 28.543 21.9403 27.6406 20.4398C27.5423 20.2773 27.4442 20.1195 27.339 19.9659C27.3179 19.9366 27.2992 19.9073 27.2806 19.8824C27.1918 19.7584 27.1029 19.6365 27.0117 19.5216C26.9884 19.4899 26.9672 19.465 26.9439 19.438C26.8457 19.3228 26.7451 19.2078 26.6446 19.1017C26.6237 19.086 26.6096 19.0657 26.5886 19.0476C26.1281 18.5941 25.5833 18.2511 24.8656 18.0615L25.1882 17.8833H25.2022L26.4693 17.1724L27.7715 16.4528L31.2502 18.2804L31.2573 18.2737L31.2665 18.2804L34.7452 16.4528L36.0498 17.1724ZM34.3337 15.6584L31.5612 17.0687V11.3599L35.3228 10.128L34.3337 15.6584ZM31.2596 10.7327L27.1356 9.15998C27.4863 8.35896 29.1041 7.6774 31.2596 7.67516C33.4174 7.6774 35.0352 8.35896 35.3836 9.15998L31.2596 10.7327Z" fill="black"/>
    <path d="M82.3325 34.6117V25.5766H87.8234V22.2888H72.8438V25.5766H78.3344V34.6117H82.3325ZM93.2882 29.4599V22.2888H89.4234V34.6117H92.8351L99.4986 27.4406V34.6117H103.364V22.2888H99.9517L93.2882 29.4599ZM116.366 30.0295V34.6117H120.231V22.2888H116.366V26.7934H110.155V22.2888H106.29V34.6117H110.155V30.0295H116.366ZM130.994 34.6117C131.873 34.6117 132.673 34.5341 133.419 34.327C135.419 33.7834 136.724 32.204 136.724 30.0553C136.724 28.0102 135.605 26.5864 133.82 25.939C132.965 25.6285 131.954 25.6025 130.994 25.6025H127.022V22.2888H123.158V34.6117H130.994ZM130.327 28.5021C130.861 28.5021 131.367 28.5021 131.82 28.6574C132.46 28.8645 132.833 29.3823 132.833 30.0036C132.833 30.6508 132.46 31.1945 131.846 31.4533C131.42 31.6346 130.994 31.6346 130.327 31.6346H127.022V28.5021H130.327ZM143.654 29.9518L148.265 34.6117H153.409L146.986 28.1913L153.169 22.2888H148.319L143.654 26.9229H142.588V22.2888H138.724V34.6117H142.588V29.9518H143.654ZM161.361 21.9524C156.163 21.9524 153.046 24.8 153.046 28.4761C153.046 32.1524 156.163 35.0001 161.361 35.0001C166.533 35.0001 169.652 32.1524 169.652 28.4761C169.652 24.8 166.533 21.9524 161.361 21.9524ZM161.361 31.9971C158.776 31.9971 157.125 30.4955 157.125 28.4761C157.125 26.457 158.776 24.9812 161.361 24.9812C163.921 24.9812 165.599 26.457 165.599 28.4761C165.599 30.4955 163.921 31.9971 161.361 31.9971ZM182.523 21.5898H178.658V22.8324C173.807 22.936 170.901 24.9294 170.901 28.4503C170.901 31.971 173.807 33.8092 178.658 33.9128V35.1555H182.523V33.9128C187.4 33.8092 190.306 31.971 190.306 28.4503C190.306 24.9294 187.4 22.936 182.523 22.8324V21.5898ZM178.658 31.2722C175.992 31.1686 174.819 30.1072 174.819 28.4503C174.819 26.7934 175.992 25.6025 178.658 25.4991V31.2722ZM182.523 25.4991C185.216 25.6025 186.361 26.7934 186.361 28.4503C186.361 30.1072 185.216 31.1686 182.523 31.2722V25.4991ZM203.163 21.5898H199.298V22.8324C194.447 22.936 191.543 24.9294 191.543 28.4503C191.543 31.971 194.447 33.8092 199.298 33.9128V35.1555H203.163V33.9128C208.042 33.8092 210.947 31.971 210.947 28.4503C210.947 24.9294 208.042 22.936 203.163 22.8324V21.5898ZM199.298 31.2722C196.634 31.1686 195.461 30.1072 195.461 28.4503C195.461 26.7934 196.634 25.6025 199.298 25.4991V31.2722ZM203.163 25.4991C205.856 25.6025 207.002 26.7934 207.002 28.4503C207.002 30.1072 205.856 31.1686 203.163 31.2722V25.4991Z" fill="black"/>
  </g>
  <defs>
    <clipPath id="clip0_6153_10001">
      <rect width="211" height="53.8723" fill="white"/>
    </clipPath>
  </defs>
</svg>