<svg width="24" height="24" viewBox="0 0 24 24" fill="none" xmlns="http://www.w3.org/2000/svg">
<g id="Outline/Status/Award">
<g id="Icon">
<path fill-rule="evenodd" clip-rule="evenodd" d="M12 7.38359C10.5641 7.38359 9.39999 8.54764 9.39999 9.98358C9.39999 11.4195 10.5641 12.5836 12 12.5836C13.4359 12.5836 14.6 11.4195 14.6 9.98358C14.6 8.54764 13.4359 7.38359 12 7.38359ZM10.6 9.98358C10.6 9.21038 11.2268 8.58358 12 8.58358C12.7732 8.58358 13.4 9.21038 13.4 9.98358C13.4 10.7568 12.7732 11.3836 12 11.3836C11.2268 11.3836 10.6 10.7568 10.6 9.98358Z" fill="#898785"/>
<path fill-rule="evenodd" clip-rule="evenodd" d="M12 4.18359C8.79674 4.18359 6.2 6.78034 6.2 9.98358C6.2 11.1581 6.54911 12.251 7.14921 13.1644L5.08039 16.7477C4.96273 16.9515 4.97506 17.2052 5.1119 17.3966C5.24875 17.588 5.48485 17.6818 5.71573 17.6364L7.80682 17.2253L8.49637 19.2418C8.57251 19.4644 8.77176 19.622 9.00595 19.6448C9.24015 19.6676 9.46606 19.5514 9.58371 19.3477L11.6475 15.773C11.7641 15.78 11.8816 15.7836 12 15.7836C12.1183 15.7836 12.2359 15.78 12.3525 15.773L14.4163 19.3477C14.534 19.5517 14.7603 19.6679 14.9947 19.6448C15.2291 19.6217 15.4283 19.4636 15.504 19.2406L16.1901 17.22L18.283 17.6362C18.514 17.6821 18.7505 17.5886 18.8877 17.3971C19.0249 17.2057 19.0374 16.9517 18.9196 16.7477L16.8508 13.1644C17.4509 12.251 17.8 11.1581 17.8 9.98358C17.8 6.78034 15.2032 4.18359 12 4.18359ZM7.4 9.98358C7.4 7.44308 9.45949 5.38359 12 5.38359C14.5405 5.38359 16.6 7.44308 16.6 9.98358C16.6 12.5241 14.5405 14.5836 12 14.5836C9.45949 14.5836 7.4 12.5241 7.4 9.98358ZM10.387 15.5563C9.46461 15.2898 8.63677 14.8005 7.96552 14.1505L6.77976 16.2043L8.08933 15.9468C8.38377 15.8889 8.67569 16.0575 8.77279 16.3414L9.20462 17.6043L10.387 15.5563ZM14.7935 17.601L13.613 15.5563C14.5354 15.2898 15.3632 14.8005 16.0345 14.1505L17.2183 16.201L15.9081 15.9404C15.6128 15.8817 15.3197 16.0509 15.2229 16.336L14.7935 17.601Z" fill="#898785"/>
</g>
</g>
</svg>