<svg xmlns="http://www.w3.org/2000/svg" width="40" height="40" viewBox="0 0 40 40" fill="none">
  <rect width="40" height="40" rx="20" fill="#222222"/>
  <path d="M8.43504 28.0378H7.89032C7.70831 28.0378 7.61841 27.9449 7.61841 27.7556V23.8192C7.61841 23.5548 7.71761 23.4227 7.9138 23.4227H8.37924C8.50634 23.4227 8.58472 23.4619 8.62635 23.5438C8.66798 23.6231 8.72334 23.901 8.79464 24.3729C9.09223 26.1966 9.66263 27.1097 10.7215 27.1097C11.2751 27.1097 11.7139 26.8778 12.0279 26.4213C12.3463 25.9609 12.5031 25.4024 12.5031 24.7502C12.5031 24.0749 12.337 23.4487 11.9956 22.8732C11.6586 22.2956 11.0032 21.5176 10.0364 20.5358C9.28621 19.7864 8.75079 19.2019 8.43459 18.785C8.11069 18.3556 7.85336 17.8832 7.67067 17.3825C7.47758 16.856 7.38281 16.2852 7.38281 15.6564C7.38281 14.5011 7.6875 13.553 8.29421 12.8075C8.90358 12.0619 9.64226 11.6914 10.5191 11.6914C10.9181 11.6914 11.3473 11.7993 11.8065 12.0154C12.0098 12.1169 12.1506 12.1633 12.2246 12.1633C12.2936 12.1633 12.3742 12.1348 12.4619 12.0772C12.5496 12.0265 12.6581 12.0022 12.7896 12.0022H13.1935C13.4034 12.0022 13.5097 12.0951 13.5097 12.2844V15.7421C13.5097 15.9164 13.4313 16.0021 13.2697 16.0021H12.7644C12.6351 16.0021 12.5496 15.9693 12.5106 15.9032C12.4712 15.8393 12.3999 15.5835 12.2981 15.147C11.9544 13.6383 11.396 12.8799 10.625 12.8799C10.2073 12.8799 9.8752 13.0475 9.62366 13.383C9.37212 13.7155 9.24502 14.1034 9.24502 14.5425C9.24502 15.0498 9.39293 15.5677 9.68788 16.1015C9.9837 16.6352 10.5696 17.3322 11.4513 18.192C12.5819 19.3012 13.3622 20.2715 13.794 21.1092C14.2298 21.9473 14.4441 22.8579 14.4441 23.8392C14.4441 25.1624 14.0845 26.2384 13.3574 27.0629C12.6355 27.892 11.772 28.3068 10.7755 28.3068C10.3296 28.3068 9.92347 28.1942 9.32828 27.9739C9.13918 27.8941 9.00278 27.857 8.92218 27.857C8.84822 27.857 8.75611 27.8899 8.64052 27.9606C8.55727 28.0135 8.48818 28.0378 8.43504 28.0378Z" fill="white"/>
  <path d="M19.8018 13.0527V19.2969H20.5046C20.7817 19.2969 20.9753 19.2361 21.0881 19.1101C21.1961 18.9868 21.3064 18.7374 21.4235 18.3621C21.5069 18.0859 21.5653 17.9265 21.599 17.8882C21.6331 17.85 21.714 17.8318 21.8471 17.8318H22.3178C22.5023 17.8318 22.5948 17.9195 22.5948 18.0859V21.7551C22.5948 21.9323 22.5226 22.02 22.3718 22.02H21.8471C21.7274 22.02 21.6465 22.0001 21.6081 21.9527C21.5674 21.9075 21.516 21.7798 21.455 21.5748C21.3198 21.0987 21.1711 20.8112 21.0159 20.7078C20.8655 20.6059 20.6881 20.5519 20.5068 20.5527H19.804V26.3273C19.804 26.6957 19.9371 26.9746 20.2072 27.1566C20.3918 27.2756 20.4843 27.4215 20.4843 27.5836V28.0618C20.4843 28.2238 20.3918 28.3068 20.2072 28.3068H16.8804C16.7231 28.3068 16.6466 28.2329 16.6466 28.0822V27.5805C16.6466 27.4254 16.7386 27.2843 16.9236 27.154C17.1938 26.9628 17.3312 26.6887 17.3312 26.3243V13.7339C17.3312 13.3698 17.1869 13.0936 16.9033 12.9029C16.7093 12.7834 16.6172 12.6423 16.6172 12.4802V11.9994C16.6172 11.8443 16.6937 11.7657 16.8515 11.7657H22.374C22.5382 11.7657 22.7975 11.7527 23.1511 11.7231C23.3447 11.7005 23.4571 11.6914 23.4934 11.6914C23.6646 11.6914 23.7683 11.7118 23.8042 11.7566C23.8379 11.7996 23.8582 11.8912 23.8582 12.0333V15.2007C23.8582 15.3849 23.7545 15.4748 23.5474 15.4748H23.1308C23.0024 15.4748 22.919 15.4501 22.8805 15.3966C22.8425 15.3402 22.7997 15.1673 22.75 14.8684C22.6329 14.1561 22.4371 13.6709 22.16 13.4237C21.8786 13.1739 21.4663 13.0501 20.9282 13.0501H19.8018V13.0527Z" fill="white"/>
  <path d="M30.6402 17.978V14.6951C30.6402 13.855 30.3715 13.6702 29.8592 13.6702C29.3219 13.6702 29.0505 13.8554 29.0505 14.6955V16.7432C29.0505 17.9289 33.2302 21.5146 33.2302 23.1948V26.1274C33.2302 28.2936 31.4489 28.9222 29.8337 28.9222C28.2467 28.9222 26.4632 28.2936 26.4632 26.1274V22.3103H29.0482V25.918C29.0482 26.7582 29.3196 26.9434 29.857 26.9434C30.3715 26.9434 30.6379 26.7603 30.6379 25.918V24.1732C30.6379 21.8425 26.4609 19.5604 26.4609 16.857V14.4857C26.4609 12.32 28.2444 11.6914 29.8314 11.6914C31.4467 11.6914 33.2275 12.32 33.2275 14.4857V17.978H30.6402Z" fill="white"/>
</svg>